<svg width="664" height="161" viewBox="0 0 664 161" fill="none" xmlns="http://www.w3.org/2000/svg">
<g filter="url(#filter0_i_432_260)">
<path d="M41 54.3347C41 51.5062 37.9495 49.7286 35.4887 51.1231L28.0279 55.3508C26.7746 56.061 26 57.3903 26 58.8309V102.669C26 104.11 26.7746 105.439 28.0279 106.149L35.028 110.116C37.6945 111.627 41 109.701 41 106.636V81.251C41 79.8534 41.7294 78.5571 42.9241 77.8318L52.965 71.7355C54.219 70.9742 55.7892 70.9604 57.0564 71.6996L107.015 100.842C108.244 101.559 109 102.875 109 104.297V122.636C109 125.701 112.306 127.627 114.972 126.116L121.972 122.149C123.225 121.439 124 120.11 124 118.669V42.7014C124 41.3307 123.298 40.0555 122.14 39.3221L115.14 34.8888C112.477 33.2021 109 35.1156 109 38.2681V76.6468C109 79.7092 105.699 81.6357 103.033 80.1297L56.9162 54.0823C55.7231 53.4084 54.268 53.3921 53.0601 54.0392L46.4346 57.5886C43.9755 58.906 41 57.1244 41 54.3347V54.3347Z" fill="#194261"/>
</g>
<path d="M174.026 116.177C168.854 116.177 164.111 114.84 159.795 112.164C155.479 109.489 152.038 105.673 149.47 100.715C146.937 95.7222 145.671 89.7837 145.671 82.9C145.671 77.015 146.509 71.879 148.186 67.492C149.862 63.105 152.145 59.467 155.034 56.578C157.958 53.6533 161.275 51.4777 164.985 50.051C168.694 48.5887 172.564 47.8575 176.594 47.8575C181.231 47.8575 185.404 48.7848 189.113 50.6395C192.822 52.4585 196.193 55.3475 199.224 59.3065L193.821 61.9815C191.11 59.0212 188.311 56.8812 185.422 55.5615C182.533 54.2062 179.537 53.5285 176.434 53.5285C172.118 53.5285 168.105 54.7055 164.396 57.0595C160.722 59.4135 157.762 62.784 155.515 67.171C153.304 71.558 152.198 76.801 152.198 82.9C152.198 88.1787 153.072 92.8867 154.82 97.024C156.603 101.161 159.135 104.425 162.417 106.814C165.734 109.204 169.693 110.399 174.294 110.399C177.682 110.399 180.714 109.614 183.389 108.045C186.099 106.476 188.221 104.05 189.755 100.769C191.324 97.4877 192.109 93.279 192.109 88.143H194.57C194.57 93.814 193.892 98.7538 192.537 102.962C191.182 107.171 188.988 110.435 185.957 112.753C182.961 115.036 178.984 116.177 174.026 116.177ZM193.447 115L192.109 98.8965V88.036L174.561 87.394V82.9H198.262V115H193.447ZM218.316 115V48.9275H258.12V54.224H224.522V78.941H256.194V84.2375H224.522V109.596H258.12V115H218.316ZM266.66 54.224V48.9275H317.324V54.224H293.624L295.015 52.7795V115H288.809V52.7795L290.2 54.224H266.66ZM327.436 48.802H339.472V76.444H368.338V48.802H380.374V115H368.338V86.95H339.472V115H327.436V48.802ZM399.354 115V48.802H411.39V115H399.354ZM430.432 115V48.802H454.912C462.834 48.802 468.903 50.655 473.119 54.361C477.369 58.067 479.494 62.98 479.494 69.1C479.494 75.118 477.369 79.98 473.119 83.686C468.903 87.358 462.834 89.194 454.912 89.194H442.468V115H430.432ZM466.234 115L448.69 83.992H461.542L481.942 115H466.234ZM442.468 81.136H453.688C458.108 81.136 461.457 80.133 463.735 78.127C466.013 76.087 467.152 73.452 467.152 70.222C467.152 66.924 466.115 64.272 464.041 62.266C461.967 60.226 458.924 59.206 454.912 59.206H442.468V81.136ZM495.973 115V48.802H538.507V59.206H508.009V76.648H536.671V87.052H508.009V104.494H538.507V115H495.973ZM548.902 107.962C548.902 105.65 549.684 103.712 551.248 102.148C552.812 100.584 554.818 99.802 557.266 99.802C559.714 99.802 561.754 100.584 563.386 102.148C565.018 103.712 565.834 105.65 565.834 107.962C565.834 110.24 565.018 112.144 563.386 113.674C561.754 115.17 559.714 115.918 557.266 115.918C554.818 115.918 552.812 115.153 551.248 113.623C549.684 112.093 548.902 110.206 548.902 107.962ZM570.612 115L593.154 48.802H608.25L629.874 115H617.226L612.636 100.72H588.054L583.362 115H570.612ZM591.114 91.642H609.78L600.498 63.184L591.114 91.642ZM641.704 115V48.802H653.74V115H641.704Z" fill="url(#paint0_linear_432_260)"/>
<g filter="url(#filter1_i_432_260)">
<path d="M79.62 24.325C80.7895 25.056 81.5 26.3378 81.5 27.717V36.2986C81.5 37.6693 82.2018 38.9445 83.3598 39.6779L90.3598 44.1112C93.0231 45.7979 96.5 43.8844 96.5 40.7319V18.7433C96.5 17.3499 95.7748 16.0568 94.5858 15.3302L71.5619 1.26002C70.294 0.48521 68.7011 0.477046 67.4253 1.23882L1.94929 40.336C0.740344 41.0579 0 42.3623 0 43.7704V118.698C0 120.123 0.758402 121.441 1.99084 122.156L65.9339 159.3C67.2064 160.039 68.7821 160.02 70.0361 159.25L94.5931 144.171C95.7779 143.443 96.5 142.153 96.5 140.762V109.797C96.5 108.375 95.7444 107.059 94.5155 106.342L72.3214 93.3958C69.6985 91.8658 66.3942 93.7014 66.3075 96.7367L66.0633 105.286C66.0239 106.664 66.6963 107.964 67.8428 108.729L79.2188 116.313C80.3316 117.054 81 118.303 81 119.641V133.19C81 134.619 80.2371 135.94 78.9989 136.654L70.0515 141.816C68.7864 142.546 67.2241 142.529 65.9758 141.77L16.4233 111.668C15.2291 110.943 14.5 109.647 14.5 108.25V51.8187C14.5 50.3846 15.2677 49.0603 16.512 48.3476L67.4224 19.1899C68.7016 18.4572 70.2802 18.4876 71.5303 19.269L79.62 24.325Z" fill="#2D71AC"/>
</g>
<defs>
<filter id="filter0_i_432_260" x="25" y="34.2617" width="99" height="94.3799" filterUnits="userSpaceOnUse" color-interpolation-filters="sRGB">
<feFlood flood-opacity="0" result="BackgroundImageFix"/>
<feBlend mode="normal" in="SourceGraphic" in2="BackgroundImageFix" result="shape"/>
<feColorMatrix in="SourceAlpha" type="matrix" values="0 0 0 0 0 0 0 0 0 0 0 0 0 0 0 0 0 0 127 0" result="hardAlpha"/>
<feOffset dx="-1" dy="2"/>
<feGaussianBlur stdDeviation="3"/>
<feComposite in2="hardAlpha" operator="arithmetic" k2="-1" k3="1"/>
<feColorMatrix type="matrix" values="0 0 0 0 0 0 0 0 0 0 0 0 0 0 0 0 0 0 0.75 0"/>
<feBlend mode="normal" in2="shape" result="effect1_innerShadow_432_260"/>
</filter>
<filter id="filter1_i_432_260" x="0" y="0.672852" width="99.5" height="159.168" filterUnits="userSpaceOnUse" color-interpolation-filters="sRGB">
<feFlood flood-opacity="0" result="BackgroundImageFix"/>
<feBlend mode="normal" in="SourceGraphic" in2="BackgroundImageFix" result="shape"/>
<feColorMatrix in="SourceAlpha" type="matrix" values="0 0 0 0 0 0 0 0 0 0 0 0 0 0 0 0 0 0 127 0" result="hardAlpha"/>
<feOffset dx="3"/>
<feGaussianBlur stdDeviation="3"/>
<feComposite in2="hardAlpha" operator="arithmetic" k2="-1" k3="1"/>
<feColorMatrix type="matrix" values="0 0 0 0 0 0 0 0 0 0 0 0 0 0 0 0 0 0 0.75 0"/>
<feBlend mode="normal" in2="shape" result="effect1_innerShadow_432_260"/>
</filter>
<linearGradient id="paint0_linear_432_260" x1="359" y1="80" x2="493" y2="203" gradientUnits="userSpaceOnUse">
<stop stop-color="#2B6CA4"/>
<stop offset="1" stop-color="#194261"/>
</linearGradient>
</defs>
</svg>
