<svg width="110" height="110" viewBox="0 0 110 110" fill="none" xmlns="http://www.w3.org/2000/svg">
<path fill-rule="evenodd" clip-rule="evenodd" d="M82.5 27.5V82.5H27.5V27.5H82.5ZM50.6493 41.25H45.2929L35.1235 68.75H39.9559L41.8758 63.374H54.0493L55.928 68.75H61.0515L50.6493 41.25ZM69.6295 41.25H64.8165V68.75H69.6295V41.25ZM47.9305 45.8638L52.7246 59.5833H43.2126L47.9305 45.8638ZM87.0833 68.75H96.25V77.9167H87.0833V68.75ZM32.0833 87.0833H41.25V96.25H32.0833V87.0833ZM50.4167 87.0833H59.5833V96.25H50.4167V87.0833ZM32.0833 13.75H41.25V22.9167H32.0833V13.75ZM68.75 87.0833H77.9167V96.25H68.75V87.0833ZM50.4167 13.75H59.5833V22.9167H50.4167V13.75ZM68.75 13.75H77.9167V22.9167H68.75V13.75ZM87.0833 50.4167H96.25V59.5833H87.0833V50.4167ZM13.75 68.75H22.9167V77.9167H13.75V68.75ZM87.0833 32.0833H96.25V41.25H87.0833V32.0833ZM13.75 50.4167H22.9167V59.5833H13.75V50.4167ZM13.75 32.0833H22.9167V41.25H13.75V32.0833Z" fill="black" fill-opacity="0.5"/>
</svg>
