<svg width="34" height="34" viewBox="0 0 34 34" fill="none" xmlns="http://www.w3.org/2000/svg">
<path d="M19.834 12.75C19.834 12.1864 20.0579 11.6459 20.4564 11.2474C20.8549 10.8489 21.3954 10.625 21.959 10.625C22.5226 10.625 23.0631 10.8489 23.4616 11.2474C23.8601 11.6459 24.084 12.1864 24.084 12.75C24.084 13.3136 23.8601 13.8541 23.4616 14.2526C23.0631 14.6511 22.5226 14.875 21.959 14.875C21.3954 14.875 20.8549 14.6511 20.4564 14.2526C20.0579 13.8541 19.834 13.3136 19.834 12.75Z" fill="#545454"/>
<path fill-rule="evenodd" clip-rule="evenodd" d="M10.2971 6.59847C14.7583 6.21067 19.2447 6.21067 23.7059 6.59847L25.845 6.78547C26.8396 6.87206 27.776 7.29087 28.5035 7.97445C29.231 8.65803 29.7073 9.56659 29.8556 10.5538C30.4981 14.827 30.4981 19.1723 29.8556 23.4455C29.7073 24.4327 29.231 25.3412 28.5035 26.0248C27.776 26.7084 26.8396 27.1272 25.845 27.2138L23.7059 27.3994C19.2434 27.7875 14.7582 27.7875 10.2971 27.3994L8.15795 27.2138C7.16317 27.1275 6.22641 26.7088 5.4986 26.0252C4.77079 25.3416 4.29431 24.4329 4.14595 23.4455C3.50343 19.1723 3.50343 14.827 4.14595 10.5538C4.29425 9.56659 4.77052 8.65803 5.49805 7.97445C6.22557 7.29087 7.16201 6.87206 8.15653 6.78547L10.2971 6.59847ZM23.5217 8.71638C19.1826 8.33916 14.819 8.33916 10.4799 8.71638L8.3407 8.90197C7.82186 8.94736 7.33337 9.16598 6.95384 9.52264C6.57431 9.8793 6.32579 10.3533 6.24828 10.8683C5.88402 13.2917 5.73658 15.7428 5.8077 18.1925L11.2916 12.7071C11.394 12.605 11.5161 12.5247 11.6505 12.4714C11.785 12.4181 11.9289 12.3928 12.0735 12.397C12.218 12.4013 12.3602 12.435 12.4913 12.4961C12.6224 12.5572 12.7396 12.6445 12.8358 12.7525L18.0378 18.6033L21.622 17.4076C21.8184 17.3419 22.0299 17.335 22.2302 17.3878C22.4306 17.4407 22.6111 17.551 22.7496 17.7051L27.7349 23.2443C28.3642 19.1435 28.3709 14.9711 27.7547 10.8683C27.6771 10.3531 27.4284 9.87892 27.0486 9.52223C26.6688 9.16554 26.18 8.94706 25.6609 8.90197L23.5217 8.71638ZM26.3791 24.916L21.6347 19.6446L18.0449 20.8402C17.8476 20.9061 17.6353 20.9126 17.4343 20.859C17.2334 20.8053 17.0526 20.6939 16.9144 20.5385L11.9971 15.0064L5.98478 21.0173C6.0542 21.7228 6.14062 22.4283 6.24687 23.1295C6.32415 23.645 6.57274 24.1195 6.95258 24.4765C7.33243 24.8335 7.8214 25.0521 8.3407 25.0973L10.4799 25.2829C14.8191 25.6597 19.1825 25.6597 23.5217 25.2829L25.6609 25.0973C25.913 25.0746 26.1567 25.0123 26.3791 24.916Z" fill="#545454"/>
</svg>
