<svg width="25" height="12" viewBox="0 0 25 12" fill="none" xmlns="http://www.w3.org/2000/svg">
<path d="M3.70349 11.9681H16.1427V10.0792C16.1427 9.85088 16.2346 9.63439 16.3977 9.47426L19.2355 6.68396C19.3956 6.5268 19.6091 6.44081 19.8315 6.44081H24.4632V0.87207C24.3387 1.12708 24.1963 1.37913 24.0333 1.62821C23.3957 2.60378 22.4854 3.47556 21.3349 4.21984C19.5468 5.37629 17.3081 6.12946 14.8825 6.41709V6.66614V7.33632C14.8825 8.45425 13.9751 9.36158 12.8572 9.36158H12.5103C11.3924 9.36158 10.485 8.45422 10.485 7.33632V6.66617V6.41709C8.05942 6.1324 5.82065 5.37626 4.03261 4.21984C2.88209 3.47556 1.97176 2.60378 1.33423 1.62821C1.17117 1.37913 1.02884 1.12708 0.904297 0.87207V9.16884C0.904297 10.7137 2.1586 11.9681 3.70349 11.9681Z" fill="white"/>
</svg>
