<svg width="12" height="9" viewBox="0 0 12 9" fill="none" xmlns="http://www.w3.org/2000/svg">
<path d="M10.4992 1.51003L1.49922 1.51003C1.4081 1.51025 1.31879 1.5291 1.24089 1.56455C1.16299 1.6 1.09945 1.65072 1.05713 1.71124C1.0148 1.77176 0.995282 1.83979 1.00067 1.90801C1.00606 1.97623 1.03616 2.04206 1.08772 2.09841L5.58772 6.97341C5.77422 7.17553 6.22322 7.17553 6.41022 6.97341L10.9102 2.09841C10.9623 2.04218 10.9929 1.97632 10.9985 1.90798C11.0042 1.83965 10.9848 1.77145 10.9425 1.7108C10.9001 1.65016 10.8364 1.59937 10.7582 1.56398C10.6801 1.52858 10.5905 1.50992 10.4992 1.51003Z" fill="black"/>
</svg>
