<svg width="40" height="40" viewBox="0 0 40 40" fill="none" xmlns="http://www.w3.org/2000/svg">
<path d="M20 3.33398C10.7834 3.33398 3.33337 10.784 3.33337 20.0006C3.33337 29.2173 10.7834 36.6673 20 36.6673C29.2167 36.6673 36.6667 29.2173 36.6667 20.0006C36.6667 10.784 29.2167 3.33398 20 3.33398ZM28.3334 25.984L25.9834 28.334L20 22.3506L14.0167 28.334L11.6667 25.984L17.65 20.0006L11.6667 14.0173L14.0167 11.6673L20 17.6506L25.9834 11.6673L28.3334 14.0173L22.35 20.0006L28.3334 25.984Z" fill="#5956E9"/>
<path d="M20 3.33398C10.7834 3.33398 3.33337 10.784 3.33337 20.0006C3.33337 29.2173 10.7834 36.6673 20 36.6673C29.2167 36.6673 36.6667 29.2173 36.6667 20.0006C36.6667 10.784 29.2167 3.33398 20 3.33398ZM28.3334 25.984L25.9834 28.334L20 22.3506L14.0167 28.334L11.6667 25.984L17.65 20.0006L11.6667 14.0173L14.0167 11.6673L20 17.6506L25.9834 11.6673L28.3334 14.0173L22.35 20.0006L28.3334 25.984Z" fill="url(#paint0_linear_420_544)"/>
<defs>
<linearGradient id="paint0_linear_420_544" x1="27.4713" y1="36.6673" x2="0.486796" y2="27.7412" gradientUnits="userSpaceOnUse">
<stop stop-color="#0F87B3"/>
<stop offset="1" stop-color="#462DA1"/>
</linearGradient>
</defs>
</svg>
