<svg width="18" height="18" viewBox="0 0 18 18" fill="none" xmlns="http://www.w3.org/2000/svg">
<path d="M6.1875 12.9372C6.03832 12.9372 5.89524 12.8779 5.78975 12.7724C5.68426 12.667 5.625 12.5239 5.625 12.3747V5.6247C5.62505 5.52885 5.64959 5.43461 5.69629 5.35091C5.743 5.26722 5.81031 5.19684 5.89185 5.14646C5.97339 5.09609 6.06644 5.06738 6.16219 5.06307C6.25794 5.05876 6.3532 5.07898 6.43894 5.12182L13.1889 8.49682C13.2822 8.54359 13.3607 8.61539 13.4155 8.7042C13.4704 8.79301 13.4994 8.89533 13.4994 8.9997C13.4994 9.10407 13.4704 9.20639 13.4155 9.2952C13.3607 9.38401 13.2822 9.45581 13.1889 9.50257L6.43894 12.8776C6.36088 12.9167 6.2748 12.9371 6.1875 12.9372ZM6.75 6.53482V11.4646L11.6797 8.9997L6.75 6.53482Z" fill="black" fill-opacity="0.5"/>
<path d="M9 2.25C10.335 2.25 11.6401 2.64588 12.7501 3.38758C13.8601 4.12928 14.7253 5.18349 15.2362 6.41689C15.7471 7.65029 15.8808 9.00749 15.6203 10.3169C15.3599 11.6262 14.717 12.829 13.773 13.773C12.829 14.717 11.6262 15.3598 10.3169 15.6203C9.00749 15.8808 7.65029 15.7471 6.41689 15.2362C5.18349 14.7253 4.12928 13.8601 3.38758 12.7501C2.64588 11.6401 2.25 10.335 2.25 9C2.25 7.20979 2.96116 5.4929 4.22703 4.22703C5.4929 2.96116 7.20979 2.25 9 2.25ZM9 1.125C7.44248 1.125 5.91992 1.58686 4.62489 2.45218C3.32985 3.31749 2.32049 4.5474 1.72445 5.98637C1.12841 7.42534 0.972461 9.00874 1.27632 10.5363C1.58018 12.0639 2.3302 13.4671 3.43154 14.5685C4.53288 15.6698 5.93607 16.4198 7.46367 16.7237C8.99127 17.0275 10.5747 16.8716 12.0136 16.2756C13.4526 15.6795 14.6825 14.6702 15.5478 13.3751C16.4131 12.0801 16.875 10.5575 16.875 9C16.875 6.91142 16.0453 4.90838 14.5685 3.43153C13.0916 1.95469 11.0886 1.125 9 1.125Z" fill="black" fill-opacity="0.5"/>
</svg>
