<svg width="24" height="24" viewBox="0 0 24 24" fill="none" xmlns="http://www.w3.org/2000/svg">
<g clip-path="url(#clip0_461_1894)">
<path d="M11.9337 11.5331C13.7337 11.5331 15.1337 10.0664 15.1337 8.26641C15.1337 6.46641 13.667 5.06641 11.867 5.06641C10.067 5.06641 8.66699 6.53307 8.66699 8.26641C8.66699 10.0664 10.1337 11.5331 11.9337 11.5331ZM11.867 6.39974C11.9337 6.39974 11.9337 6.39974 11.867 6.39974C12.9337 6.39974 13.8003 7.26641 13.8003 8.33307C13.8003 9.39974 12.9337 10.1997 11.867 10.1997C10.8003 10.1997 10.0003 9.33307 10.0003 8.33307C10.0003 7.26641 10.867 6.39974 11.867 6.39974Z" fill="black" fill-opacity="0.5"/>
<path d="M21.8 11.1336C20.5333 10.0003 18.8667 9.40026 17.1333 9.46693H16.6C16.4667 10.0003 16.2667 10.4669 16 10.8669C16.4 10.8003 16.7333 10.8003 17.1333 10.8003C18.4 10.7336 19.6667 11.1336 20.6667 11.8669V16.6669H22V11.3336L21.8 11.1336Z" fill="black" fill-opacity="0.5"/>
<path d="M15.6003 5.19954C15.9337 4.39954 16.867 3.99954 17.7337 4.33288C18.5337 4.66621 18.9337 5.59954 18.6003 6.46621C18.3337 7.06621 17.7337 7.46621 17.1337 7.46621C17.0003 7.46621 16.8003 7.46621 16.667 7.39954C16.7337 7.73288 16.7337 8.06621 16.7337 8.33288V8.73288C16.867 8.73288 17.0003 8.79954 17.1337 8.79954C18.8003 8.79954 20.1337 7.46621 20.1337 5.86621C20.1337 4.19954 18.8003 2.86621 17.2003 2.86621C16.1337 2.86621 15.2003 3.39954 14.667 4.33288C15.0003 4.53288 15.3337 4.79954 15.6003 5.19954Z" fill="black" fill-opacity="0.5"/>
<path d="M8 10.9333C7.73333 10.5333 7.53333 10.0667 7.4 9.53335H6.86667C5.13333 9.46668 3.46667 10.0667 2.2 11.1333L2 11.3333V16.6667H3.33333V11.8667C4.4 11.1333 5.6 10.7333 6.86667 10.8C7.26667 10.8 7.66667 10.8667 8 10.9333Z" fill="black" fill-opacity="0.5"/>
<path d="M6.86619 8.73311C6.99952 8.73311 7.13285 8.73311 7.26619 8.66645V8.26645C7.26619 7.93311 7.26619 7.59978 7.33285 7.33311C7.19952 7.39978 6.99952 7.39978 6.86619 7.39978C5.99952 7.39978 5.26619 6.66645 5.26619 5.79978C5.26619 4.93311 5.99952 4.19978 6.86619 4.19978C7.53285 4.19978 8.13285 4.59978 8.39952 5.19978C8.66619 4.86645 9.06619 4.53311 9.39952 4.26645C8.53285 2.86645 6.73285 2.39978 5.33285 3.26645C3.93285 4.13311 3.46619 5.93311 4.33285 7.33311C4.86619 8.19978 5.79952 8.73311 6.86619 8.73311Z" fill="black" fill-opacity="0.5"/>
<path d="M17.4003 15.1333L17.267 14.9333C15.9337 13.4667 14.067 12.6 12.067 12.6667C10.067 12.6 8.13366 13.4667 6.80033 14.9333L6.66699 15.1333V20.2C6.66699 20.8 7.13366 21.3333 7.80033 21.3333H16.3337C16.9337 21.3333 17.467 20.8 17.467 20.2V15.1333H17.4003ZM16.067 20H8.00033V15.6C9.06699 14.5333 10.5337 14 12.067 14C13.5337 13.9333 15.0003 14.5333 16.067 15.6V20Z" fill="black" fill-opacity="0.5"/>
</g>
<defs>
<clipPath id="clip0_461_1894">
<rect width="24" height="24" fill="white"/>
</clipPath>
</defs>
</svg>
