<svg width="29" height="29" viewBox="0 0 29 29" fill="none" xmlns="http://www.w3.org/2000/svg">
<path d="M14.78 7.39062L25.2268 11.5692L14.78 15.7212L6.98513 12.6141C6.50256 13.0161 6.15456 13.6589 6.10141 14.3823H6.28913C6.50341 14.3823 6.66456 14.5435 6.66456 14.7578V15.7486C6.66456 15.9629 6.50341 16.1241 6.28913 16.1241H6.15541L6.66456 21.3209C6.69113 21.5352 6.53084 21.7229 6.31656 21.7229H5.37884C5.16456 21.7229 5.00341 21.5352 5.00341 21.3209L5.53913 16.1241H5.40541C5.19113 16.1241 5.00341 15.9629 5.00341 15.7486V14.7578C5.00341 14.5435 5.19113 14.3823 5.40541 14.3823H5.70027C5.75427 13.6058 6.10227 12.9355 6.58398 12.4538L4.33398 11.5701L14.78 7.39062ZM14.4851 16.4712L14.78 16.5783L15.0748 16.4712L20.8074 14.1672L21.236 18.9081C21.2626 19.2295 21.0483 19.3632 20.7534 19.2295L18.5034 18.0775C18.2086 17.9163 17.7268 17.9438 17.4586 18.1041L15.2891 19.3366C15.0208 19.4978 14.5391 19.4978 14.2708 19.3366L12.1014 18.1041C11.8331 17.9429 11.3514 17.9163 11.0831 18.0775L8.80656 19.2295C8.5117 19.3906 8.29741 19.2295 8.32398 18.9081L8.75256 14.1672L14.4851 16.4712Z" fill="white"/>
</svg>
