<svg width="62" height="88" viewBox="0 0 62 88" fill="none" xmlns="http://www.w3.org/2000/svg">
<path d="M17.7184 17.434V13.6531C17.7184 12.9699 18.2743 12.4144 18.9571 12.4144H42.2546C42.9378 12.4144 43.4933 12.9703 43.4933 13.6531V17.434C43.4933 18.1172 42.9374 18.6728 42.2546 18.6728H18.9575C18.2743 18.6731 17.7184 18.1172 17.7184 17.434ZM37.7536 6.59513C37.4557 2.90962 34.3672 0 30.6061 0C26.8449 0 23.7564 2.90962 23.4585 6.59513H37.7536ZM61.2121 21.4668V80.1762C61.2121 84.4902 57.7024 88 53.3884 88H7.82377C3.50977 88 0 84.4902 0 80.1762V21.4668C0 17.1528 3.50977 13.643 7.82377 13.643H11.8996C11.8996 13.6465 11.8992 13.65 11.8992 13.6531V17.434C11.8992 21.3259 15.0656 24.492 18.9571 24.492H42.2546C46.1465 24.492 49.3126 21.3259 49.3126 17.434V13.6531C49.3126 13.6496 49.3122 13.6461 49.3122 13.643H53.388C57.7024 13.643 61.2121 17.1528 61.2121 21.4668ZM20.8166 55.6509C19.4487 54.8079 17.6559 55.2331 16.8129 56.601L14.0616 61.0639L12.6413 59.9451C11.3797 58.9508 9.54936 59.1684 8.55544 60.4308C7.56112 61.6936 7.77876 63.5228 9.04115 64.5171L13.0258 67.6552C13.5425 68.0621 14.1776 68.2786 14.8259 68.2786C14.995 68.2786 15.1653 68.2639 15.3345 68.234C16.1511 68.0889 16.8676 67.602 17.3029 66.896L21.7666 59.6545C22.6101 58.2866 22.1845 56.4943 20.8166 55.6509ZM20.8166 34.7016C19.4487 33.8582 17.6559 34.2842 16.8129 35.6517L14.0616 40.1147L12.6413 38.9958C11.3797 38.0019 9.54936 38.2192 8.55544 39.4816C7.56112 40.7443 7.77876 42.5735 9.04115 43.5678L13.0258 46.7059C13.5425 47.1129 14.1776 47.3294 14.8259 47.3294C14.995 47.3294 15.1653 47.3146 15.3345 47.2848C16.1511 47.1397 16.8676 46.6528 17.3029 45.9467L21.7666 38.7057C22.6101 37.3374 22.1845 35.545 20.8166 34.7016ZM50.9505 65.3694C50.9505 63.7621 49.6481 62.4598 48.0409 62.4598H29.0314C27.4245 62.4598 26.1218 63.7621 26.1218 65.3694C26.1218 66.9767 27.4245 68.279 29.0314 68.279H48.0409C49.6481 68.279 50.9505 66.9767 50.9505 65.3694ZM50.9505 44.4202C50.9505 42.8129 49.6481 41.5105 48.0409 41.5105H29.0314C27.4245 41.5105 26.1218 42.8129 26.1218 44.4202C26.1218 46.0274 27.4245 47.3298 29.0314 47.3298H48.0409C49.6481 47.3298 50.9505 46.0274 50.9505 44.4202Z" fill="#5956E9"/>
<path d="M17.7184 17.434V13.6531C17.7184 12.9699 18.2743 12.4144 18.9571 12.4144H42.2546C42.9378 12.4144 43.4933 12.9703 43.4933 13.6531V17.434C43.4933 18.1172 42.9374 18.6728 42.2546 18.6728H18.9575C18.2743 18.6731 17.7184 18.1172 17.7184 17.434ZM37.7536 6.59513C37.4557 2.90962 34.3672 0 30.6061 0C26.8449 0 23.7564 2.90962 23.4585 6.59513H37.7536ZM61.2121 21.4668V80.1762C61.2121 84.4902 57.7024 88 53.3884 88H7.82377C3.50977 88 0 84.4902 0 80.1762V21.4668C0 17.1528 3.50977 13.643 7.82377 13.643H11.8996C11.8996 13.6465 11.8992 13.65 11.8992 13.6531V17.434C11.8992 21.3259 15.0656 24.492 18.9571 24.492H42.2546C46.1465 24.492 49.3126 21.3259 49.3126 17.434V13.6531C49.3126 13.6496 49.3122 13.6461 49.3122 13.643H53.388C57.7024 13.643 61.2121 17.1528 61.2121 21.4668ZM20.8166 55.6509C19.4487 54.8079 17.6559 55.2331 16.8129 56.601L14.0616 61.0639L12.6413 59.9451C11.3797 58.9508 9.54936 59.1684 8.55544 60.4308C7.56112 61.6936 7.77876 63.5228 9.04115 64.5171L13.0258 67.6552C13.5425 68.0621 14.1776 68.2786 14.8259 68.2786C14.995 68.2786 15.1653 68.2639 15.3345 68.234C16.1511 68.0889 16.8676 67.602 17.3029 66.896L21.7666 59.6545C22.6101 58.2866 22.1845 56.4943 20.8166 55.6509ZM20.8166 34.7016C19.4487 33.8582 17.6559 34.2842 16.8129 35.6517L14.0616 40.1147L12.6413 38.9958C11.3797 38.0019 9.54936 38.2192 8.55544 39.4816C7.56112 40.7443 7.77876 42.5735 9.04115 43.5678L13.0258 46.7059C13.5425 47.1129 14.1776 47.3294 14.8259 47.3294C14.995 47.3294 15.1653 47.3146 15.3345 47.2848C16.1511 47.1397 16.8676 46.6528 17.3029 45.9467L21.7666 38.7057C22.6101 37.3374 22.1845 35.545 20.8166 34.7016ZM50.9505 65.3694C50.9505 63.7621 49.6481 62.4598 48.0409 62.4598H29.0314C27.4245 62.4598 26.1218 63.7621 26.1218 65.3694C26.1218 66.9767 27.4245 68.279 29.0314 68.279H48.0409C49.6481 68.279 50.9505 66.9767 50.9505 65.3694ZM50.9505 44.4202C50.9505 42.8129 49.6481 41.5105 48.0409 41.5105H29.0314C27.4245 41.5105 26.1218 42.8129 26.1218 44.4202C26.1218 46.0274 27.4245 47.3298 29.0314 47.3298H48.0409C49.6481 47.3298 50.9505 46.0274 50.9505 44.4202Z" fill="url(#paint0_linear_420_599)"/>
<defs>
<linearGradient id="paint0_linear_420_599" x1="59.083" y1="88" x2="-8.35689" y2="81.0461" gradientUnits="userSpaceOnUse">
<stop stop-color="#0F87B3"/>
<stop offset="1" stop-color="#462DA1"/>
</linearGradient>
</defs>
</svg>
