<svg width="20" height="21" viewBox="0 0 20 21" fill="none" xmlns="http://www.w3.org/2000/svg">
<path d="M10 19.5C11.78 19.5 13.5201 18.9722 15.0001 17.9832C16.4802 16.9943 17.6337 15.5887 18.3149 13.9442C18.9961 12.2996 19.1743 10.49 18.8271 8.74419C18.4798 6.99836 17.6226 5.39472 16.364 4.13604C15.1053 2.87737 13.5016 2.0202 11.7558 1.67294C10.01 1.32567 8.20038 1.5039 6.55585 2.18509C4.91131 2.86628 3.50571 4.01983 2.51677 5.49987C1.52784 6.97991 1 8.71997 1 10.5C1 11.988 1.36 13.39 2 14.627L1 19.5L5.873 18.5C7.109 19.139 8.513 19.5 10 19.5Z" stroke="#545454" stroke-width="1.5" stroke-linecap="round" stroke-linejoin="round"/>
</svg>
