<svg width="17" height="19" viewBox="0 0 17 19" fill="none" xmlns="http://www.w3.org/2000/svg">
<g clip-path="url(#clip0_493_3711)">
<path d="M7.29339 0.609017C7.87728 0.241005 8.62124 0.241005 9.20515 0.609017L15.514 4.58526C16.0332 4.91257 16.3481 5.48269 16.3481 6.09562V13.0139C16.3481 13.6514 16.0078 14.2405 15.455 14.5599L9.14616 18.2048C8.59137 18.5253 7.90717 18.5253 7.35239 18.2048L1.04356 14.5599C0.490763 14.2405 0.150391 13.6514 0.150391 13.0139V6.09562C0.150391 5.48269 0.465276 4.91257 0.984567 4.58529L7.29339 0.609017Z" fill="url(#paint0_linear_493_3711)"/>
<mask id="mask0_493_3711" style="mask-type:luminance" maskUnits="userSpaceOnUse" x="4" y="4" width="10" height="11">
<path d="M13.2775 4.93945H4.07031V14.1275H13.2775V4.93945Z" fill="white"/>
</mask>
<g mask="url(#mask0_493_3711)">
<path d="M5.90406 10.5236C5.79574 10.8131 5.70415 11.0803 5.62231 11.3508C6.06862 11.0275 6.59909 10.8224 7.21139 10.7458C8.37973 10.6001 9.41789 9.83045 9.94324 8.86309L9.26632 8.18806L9.92326 7.53156L10.3882 7.06714C10.5881 6.86764 10.8136 6.49927 11.0521 5.96852C8.4518 6.37075 6.85993 7.9598 5.90406 10.5236ZM10.5811 8.1876L11.046 8.65109C10.5811 10.0429 9.18635 11.4348 7.32668 11.6668C6.08582 11.8217 5.31083 12.6722 5.00119 14.2185H4.07227C4.5372 11.4348 5.46703 4.93945 12.4408 4.93945C11.9759 6.32991 11.5119 7.25737 11.0474 7.72179L10.5811 8.1876Z" fill="white"/>
</g>
</g>
<defs>
<linearGradient id="paint0_linear_493_3711" x1="-0.702122" y1="18.2976" x2="16.3481" y2="18.2976" gradientUnits="userSpaceOnUse">
<stop stop-color="#A455DB"/>
<stop offset="1" stop-color="#7B3D9D"/>
</linearGradient>
<clipPath id="clip0_493_3711">
<rect width="16.4819" height="19" fill="white"/>
</clipPath>
</defs>
</svg>
