<svg width="28" height="28" viewBox="0 0 28 28" fill="none" xmlns="http://www.w3.org/2000/svg">
<g clip-path="url(#clip0_489_2440)">
<path d="M11.0264 16.0645L9.0957 17.9952L10.3375 18.3864C10.477 18.4305 10.5858 18.5394 10.6299 18.6788L11.0211 19.9206L12.9518 17.9899L11.0264 16.0645Z" fill="white"/>
<path d="M4.85128 0.572802C4.76556 0.487195 4.62527 0.444336 4.44648 0.444336C4.27382 0.444336 4.06537 0.48452 3.83586 0.564498C3.25405 0.766924 2.59495 1.20795 2.02802 1.77532C0.799257 3.00402 0.495061 4.26812 0.825508 4.59857C1.15601 4.92857 2.42005 4.62482 3.64876 3.39606C4.87747 2.1674 5.18167 0.903304 4.85128 0.572802Z" fill="white"/>
<path d="M5.80741 1.52832C5.63173 2.30793 5.10633 3.20535 4.28253 4.02921C3.4575 4.85424 2.55985 5.37646 1.7793 5.5513L11.0711 14.8431C12.8555 13.5205 13.7765 12.5995 15.0966 10.8176L5.80741 1.52832Z" fill="white"/>
<path d="M15.7369 11.458C14.4221 13.2203 13.4763 14.1667 11.7109 15.4832L13.6556 17.4278C15.3707 16.1245 16.3865 15.1091 17.6816 13.4032L15.7369 11.458Z" fill="white"/>
<path d="M27.4549 23.1777L18.3172 14.04C17.0304 15.7223 15.9814 16.7712 14.291 18.065L23.4296 27.2034C23.5397 27.3136 23.7386 27.3324 24.0218 27.2559C25.2549 26.9259 27.1769 25.0039 27.5073 23.7708C27.5834 23.488 27.5654 23.2883 27.4549 23.1777Z" fill="white"/>
</g>
<defs>
<clipPath id="clip0_489_2440">
<rect width="26.8571" height="26.8571" fill="white" transform="translate(0.699219 0.444336)"/>
</clipPath>
</defs>
</svg>
