<svg width="36" height="33" viewBox="0 0 36 33" fill="none" xmlns="http://www.w3.org/2000/svg">
<path d="M29.1355 0H6.48954L0 9.73423V11.5738L13.6133 32.0625H22.0117L35.625 11.5738V9.73423L29.1355 0ZM27.8645 2.375L32.5705 9.43402H24.6213L22.3998 2.375H27.8645ZM15.7149 2.375H19.9101L22.1314 9.43402H13.4936L15.7149 2.375ZM7.76054 2.375H13.2252L11.0037 9.43402H3.05447L7.76054 2.375ZM14.8867 29.6875L3.00771 11.809H10.9338L15.1267 29.6875H14.8867ZM17.566 29.6875L13.3733 11.809H22.2517L18.0588 29.6875H17.566ZM20.7381 29.6875H20.498L24.6914 11.809H32.6173L20.7381 29.6875Z" fill="#4234A2"/>
</svg>
