<svg width="33" height="31" viewBox="0 0 33 31" fill="none" xmlns="http://www.w3.org/2000/svg">
<path d="M26.8774 0.798584H6.07785L0.117432 9.73914V11.4287L12.6208 30.2469H20.3344L32.8378 11.4287V9.73914L26.8774 0.798584ZM25.71 2.97994L30.0323 9.4634H22.7312L20.6909 2.97994H25.71ZM14.551 2.97994H18.4041L20.4444 9.4634H12.5108L14.551 2.97994ZM7.24521 2.97994H12.2643L10.224 9.4634H2.92286L7.24521 2.97994ZM13.7904 28.0655L2.87991 11.6448H10.1597L14.0108 28.0655H13.7904ZM16.2512 28.0655L12.4003 11.6448H20.5549L16.7038 28.0655H16.2512ZM19.1646 28.0655H18.9442L22.7956 11.6448H30.0753L19.1646 28.0655Z" fill="white"/>
</svg>
