<svg width="29" height="25" viewBox="0 0 29 25" fill="none" xmlns="http://www.w3.org/2000/svg">
<path d="M20.3374 6.68584C20.2358 6.6054 20.1193 6.54588 19.9945 6.51071C19.8698 6.47554 19.7394 6.46542 19.6107 6.48093C19.482 6.49645 19.3577 6.53728 19.2449 6.60109C19.1322 6.66489 19.0331 6.7504 18.9535 6.85269L12.0834 15.6857L8.71701 11.5833C8.63805 11.4782 8.53877 11.39 8.42508 11.324C8.31139 11.258 8.18559 11.2155 8.05516 11.199C7.92473 11.1826 7.79232 11.1925 7.66579 11.2282C7.53927 11.2639 7.4212 11.3247 7.31861 11.4069C7.21602 11.4891 7.13099 11.591 7.06856 11.7067C7.00614 11.8224 6.9676 11.9495 6.95522 12.0804C6.94285 12.2113 6.9569 12.3433 6.99653 12.4687C7.03617 12.594 7.10058 12.7101 7.18595 12.8101L11.2786 17.894C11.371 18.0079 11.4877 18.0996 11.6202 18.1624C11.7526 18.2253 11.8975 18.2576 12.0441 18.2571C12.1998 18.2641 12.3548 18.2339 12.4965 18.169C12.6381 18.1042 12.7623 18.0065 12.8587 17.8842L20.5435 8.06968C20.6218 7.96568 20.6787 7.84712 20.7108 7.72091C20.7429 7.59471 20.7495 7.46338 20.7303 7.33459C20.7111 7.20579 20.6665 7.0821 20.5991 6.97072C20.5316 6.85934 20.4426 6.7625 20.3374 6.68584ZM25.2446 6.68584C25.143 6.6054 25.0265 6.54588 24.9018 6.51071C24.7771 6.47554 24.6466 6.46542 24.518 6.48093C24.3893 6.49645 24.265 6.53728 24.1522 6.60109C24.0394 6.66489 23.9404 6.7504 23.8608 6.85269L16.9906 15.6857L16.392 14.9497L15.1553 16.5396L16.2349 17.8842C16.3273 17.9981 16.444 18.0898 16.5765 18.1526C16.709 18.2155 16.8538 18.2478 17.0005 18.2473C17.1479 18.2466 17.2932 18.2128 17.4258 18.1482C17.5583 18.0836 17.6746 17.99 17.766 17.8744L25.4507 8.05987C25.5276 7.95616 25.5832 7.83833 25.6144 7.71311C25.6456 7.58788 25.6518 7.45773 25.6327 7.33011C25.6135 7.20248 25.5694 7.07988 25.5028 6.96933C25.4362 6.85878 25.3485 6.76244 25.2446 6.68584Z" fill="white"/>
<path d="M12.5738 13.4086L13.8399 11.8186L13.6436 11.5831C13.5661 11.4757 13.4677 11.3852 13.3543 11.3168C13.2409 11.2485 13.1149 11.2038 12.9838 11.1855C12.8526 11.1671 12.7192 11.1755 12.5914 11.2101C12.4636 11.2447 12.3441 11.3048 12.2401 11.3868C12.1393 11.4678 12.0555 11.5679 11.9935 11.6814C11.9315 11.7949 11.8925 11.9195 11.8789 12.0481C11.8652 12.1767 11.877 12.3067 11.9138 12.4307C11.9505 12.5547 12.0114 12.6702 12.0929 12.7706L12.5738 13.4086Z" fill="white"/>
</svg>
