<svg width="32" height="32" viewBox="0 0 32 32" fill="none" xmlns="http://www.w3.org/2000/svg">
<g clip-path="url(#clip0_477_1864)">
<path d="M8.90475 22.9969L19.3508 17.9644L23.2512 8.6518L13.9373 12.5522L8.90475 22.9969ZM17.7278 17.2929L11.7083 20.1934L14.6088 14.1726L17.7278 17.2929ZM16.1689 2.03418C13.3732 2.03418 10.6402 2.86323 8.31555 4.41648C5.99094 5.96973 4.17913 8.17743 3.10923 10.7604C2.03933 13.3434 1.75939 16.1856 2.30482 18.9277C2.85025 21.6697 4.19655 24.1885 6.17347 26.1654C8.15039 28.1423 10.6691 29.4886 13.4112 30.034C16.1533 30.5795 18.9955 30.2995 21.5785 29.2296C24.1614 28.1597 26.3691 26.3479 27.9224 24.0233C29.4756 21.6987 30.3047 18.9657 30.3047 16.1699C30.3005 12.4222 28.8099 8.8291 26.1598 6.17903C23.5098 3.52897 19.9167 2.03834 16.1689 2.03418ZM16.1689 28.9968C13.632 28.9968 11.1521 28.2445 9.04272 26.8351C6.93335 25.4256 5.2893 23.4223 4.31846 21.0785C3.34763 18.7347 3.09361 16.1557 3.58854 13.6675C4.08347 11.1793 5.30511 8.89382 7.09898 7.09995C8.89285 5.30608 11.1784 4.08444 13.6665 3.58951C16.1547 3.09458 18.7338 3.3486 21.0776 4.31943C23.4214 5.29027 25.4247 6.93432 26.8341 9.04369C28.2435 11.1531 28.9958 13.633 28.9958 16.1699C28.9923 19.5707 27.6398 22.8313 25.2351 25.2361C22.8303 27.6408 19.5698 28.9933 16.1689 28.9968Z" fill="black"/>
</g>
<defs>
<clipPath id="clip0_477_1864">
<rect width="31.4127" height="31.4127" fill="white" transform="translate(0.462891 0.462891)"/>
</clipPath>
</defs>
</svg>
