<svg width="24" height="24" viewBox="0 0 24 24" fill="none" xmlns="http://www.w3.org/2000/svg">
<g clip-path="url(#clip0_407_4248)">
<path d="M13.2 9.84033H5.76001V20.1603H13.2V9.84033Z" fill="#D98C21"/>
<path d="M18.24 8.88037H10.8V20.1604H18.24V8.88037Z" fill="#CC751F"/>
<path d="M15.12 17.2561C15.12 18.2161 16.248 18.5041 16.824 18.6481C18.648 19.1281 22.296 20.0641 22.296 20.0641C23.064 20.3281 23.664 20.9041 24 21.6481V24.0001H0V21.6481C0.312 20.9041 0.936 20.3281 1.704 20.0641C1.704 20.0641 5.352 19.1281 7.176 18.6481C7.752 18.5041 8.88 18.2161 8.88 17.2561C8.88 16.2961 8.88 14.6401 8.88 14.6401H15.12C15.12 14.6401 15.12 16.2961 15.12 17.2561Z" fill="#E6C19C"/>
<mask id="mask0_407_4248" style="mask-type:luminance" maskUnits="userSpaceOnUse" x="0" y="14" width="24" height="10">
<path d="M15.12 17.2561C15.12 18.2161 16.248 18.5041 16.824 18.6481C18.648 19.1281 22.296 20.0641 22.296 20.0641C23.064 20.3281 23.664 20.9041 24 21.6481V24.0001H0V21.6481C0.312 20.9041 0.936 20.3281 1.704 20.0641C1.704 20.0641 5.352 19.1281 7.176 18.6481C7.752 18.5041 8.88 18.2161 8.88 17.2561C8.88 16.2961 8.88 14.6401 8.88 14.6401H15.12C15.12 14.6401 15.12 16.2961 15.12 17.2561Z" fill="white"/>
</mask>
<g mask="url(#mask0_407_4248)">
<path d="M12.048 2.64014H12.096C12.888 2.64014 14.064 2.68814 14.832 3.12014C15.624 3.57614 16.584 4.46414 16.872 6.02414C17.448 9.31214 16.368 14.5201 15.36 16.2001C14.4 17.8081 13.008 18.4081 12.12 18.4561H12.096H12.048H12H11.976C11.088 18.4081 9.69598 17.8081 8.73598 16.2001C7.72798 14.5201 6.64798 9.31214 7.22398 6.02414C7.51198 4.46414 8.47198 3.57614 9.26398 3.12014C10.032 2.68814 11.208 2.64014 12 2.64014H12.048Z" fill="#D4B08C"/>
</g>
<mask id="mask1_407_4248" style="mask-type:luminance" maskUnits="userSpaceOnUse" x="0" y="14" width="24" height="10">
<path d="M15.12 17.2561C15.12 18.2161 16.248 18.5041 16.824 18.6481C18.648 19.1281 22.296 20.0641 22.296 20.0641C23.064 20.3281 23.664 20.9041 24 21.6481V24.0001H0V21.6481C0.312 20.9041 0.936 20.3281 1.704 20.0641C1.704 20.0641 5.352 19.1281 7.176 18.6481C7.752 18.5041 8.88 18.2161 8.88 17.2561C8.88 16.2961 8.88 14.6401 8.88 14.6401H15.12C15.12 14.6401 15.12 16.2961 15.12 17.2561Z" fill="white"/>
</mask>
<g mask="url(#mask1_407_4248)">
<path d="M0 13.9199H24V23.9999H0V13.9199ZM12 21.3599C14.904 21.3599 16.992 17.9759 16.992 17.9759C16.992 17.9759 14.616 14.1599 12 14.1599C9.384 14.1599 7.008 17.9759 7.008 17.9759C7.008 17.9759 9.096 21.3599 12 21.3599Z" fill="#6B363E"/>
</g>
<mask id="mask2_407_4248" style="mask-type:luminance" maskUnits="userSpaceOnUse" x="0" y="14" width="24" height="10">
<path d="M15.12 17.2561C15.12 18.2161 16.248 18.5041 16.824 18.6481C18.648 19.1281 22.296 20.0641 22.296 20.0641C23.064 20.3281 23.664 20.9041 24 21.6481V24.0001H0V21.6481C0.312 20.9041 0.936 20.3281 1.704 20.0641C1.704 20.0641 5.352 19.1281 7.176 18.6481C7.752 18.5041 8.88 18.2161 8.88 17.2561C8.88 16.2961 8.88 14.6401 8.88 14.6401H15.12C15.12 14.6401 15.12 16.2961 15.12 17.2561Z" fill="white"/>
</mask>
<g mask="url(#mask2_407_4248)">
<mask id="mask3_407_4248" style="mask-type:luminance" maskUnits="userSpaceOnUse" x="0" y="13" width="24" height="11">
<path d="M0 13.9199H24V23.9999H0V13.9199ZM12 21.3599C14.904 21.3599 16.992 17.9759 16.992 17.9759C16.992 17.9759 14.616 14.1599 12 14.1599C9.384 14.1599 7.008 17.9759 7.008 17.9759C7.008 17.9759 9.096 21.3599 12 21.3599Z" fill="white"/>
</mask>
<g mask="url(#mask3_407_4248)">
<path d="M17.376 18.6478C17.064 21.0478 15.144 22.7998 15.144 22.7998C15.144 22.7998 13.176 21.1198 12.696 20.9758C15.744 19.1518 16.8 18.0958 16.8 18.0958C16.8 18.0958 17.664 16.2478 17.376 18.6478ZM6.64801 18.6478C6.96001 21.0718 8.88001 22.7998 8.88001 22.7998C8.88001 22.7998 10.848 21.1198 11.328 20.9758C8.28001 19.1518 7.22401 18.0958 7.22401 18.0958C7.22401 18.0958 6.36001 16.2478 6.64801 18.6478Z" fill="white"/>
</g>
</g>
<path d="M12 3.84033C16.584 3.84033 16.968 7.15233 16.992 7.46433C17.256 10.3203 16.272 14.2083 15.36 15.5523C14.4 16.9683 13.008 17.4963 12.12 17.5443C12.072 17.5443 12.072 17.5443 12.048 17.5443L12 17.5203C11.088 17.4723 9.69602 16.9443 8.73602 15.5283C7.82402 14.1843 6.84002 10.2963 7.10402 7.41633C7.12802 7.12833 7.41602 3.84033 12 3.84033Z" fill="#F2CEA5"/>
<path d="M10.992 14.6401C10.944 14.6401 10.896 14.7361 10.92 14.8081C11.136 15.3121 11.472 15.6001 11.928 15.6241C12.408 15.6721 12.912 15.3361 13.176 14.8081C13.2 14.7361 13.176 14.6401 13.104 14.6401H10.992Z" fill="#A3705F"/>
<path d="M14.1601 11.2803C14.4252 11.2803 14.6401 11.0654 14.6401 10.8003C14.6401 10.5352 14.4252 10.3203 14.1601 10.3203C13.895 10.3203 13.6801 10.5352 13.6801 10.8003C13.6801 11.0654 13.895 11.2803 14.1601 11.2803Z" fill="#262626"/>
<path d="M9.83999 11.2803C10.1051 11.2803 10.32 11.0654 10.32 10.8003C10.32 10.5352 10.1051 10.3203 9.83999 10.3203C9.57489 10.3203 9.35999 10.5352 9.35999 10.8003C9.35999 11.0654 9.57489 11.2803 9.83999 11.2803Z" fill="#262626"/>
<path d="M11.016 10.1281C10.656 9.67212 10.104 9.57612 9.672 9.60012C8.952 9.60012 8.64 9.84012 8.64 9.84012L8.328 9.48012C8.4 9.43212 8.784 9.12012 9.696 9.12012C10.416 9.12012 11.04 9.36012 11.424 9.84012L11.016 10.1281Z" fill="#CC9872"/>
<path d="M12.7199 13.2961C12.4079 12.8881 11.9039 12.0001 12.1679 10.6801C12.3599 9.69612 13.1279 9.12012 14.2319 9.12012H14.2559C15.1679 9.12012 15.5519 9.43212 15.5759 9.45612L15.3119 9.84012C15.3119 9.84012 14.9999 9.60012 14.2799 9.60012C13.7759 9.60012 12.8639 9.74412 12.6719 10.7761C12.4319 11.9041 12.8639 12.6481 13.1279 13.0081L12.7199 13.2961Z" fill="#BB8660"/>
<path d="M5.76004 10.8722C6.33604 10.6562 7.48804 10.0322 8.64004 8.01623C10.272 5.13623 12.768 6.45623 13.56 7.39223C13.656 7.48823 13.776 7.44023 13.776 7.44023C13.776 7.44023 15.84 6.55223 16.656 8.35223C17.256 9.67223 17.592 10.0562 18.216 10.4642V8.56823C18.24 4.84823 15.96 4.80023 15.864 4.80023C15.768 4.80023 15.696 4.80023 15.648 4.65623C15.432 3.96023 13.2 1.65623 9.45604 3.12023C5.71204 4.58423 5.76004 9.84023 5.76004 9.84023V10.8722Z" fill="#E6A422"/>
<mask id="mask4_407_4248" style="mask-type:luminance" maskUnits="userSpaceOnUse" x="5" y="2" width="14" height="9">
<path d="M5.76004 10.8722C6.33604 10.6562 7.48804 10.0322 8.64004 8.01623C10.272 5.13623 12.768 6.45623 13.56 7.39223C13.656 7.48823 13.776 7.44023 13.776 7.44023C13.776 7.44023 15.84 6.55223 16.656 8.35223C17.256 9.67223 17.592 10.0562 18.216 10.4642V8.56823C18.24 4.84823 15.96 4.80023 15.864 4.80023C15.768 4.80023 15.696 4.80023 15.648 4.65623C15.432 3.96023 13.2 1.65623 9.45604 3.12023C5.71204 4.58423 5.76004 9.84023 5.76004 9.84023V10.8722Z" fill="white"/>
</mask>
<g mask="url(#mask4_407_4248)">
<path d="M13.6321 7.58429C13.6321 7.58429 14.3521 5.78429 15.7921 4.68029C17.2321 3.57629 18.4801 6.45629 18.4801 6.45629L18.5521 11.1603L13.6321 7.58429Z" fill="#D98C21"/>
</g>
</g>
<defs>
<clipPath id="clip0_407_4248">
<rect width="24" height="24" fill="white"/>
</clipPath>
</defs>
</svg>
