<svg width="29" height="29" viewBox="0 0 29 29" fill="none" xmlns="http://www.w3.org/2000/svg">
<g clip-path="url(#clip0_489_2431)">
<path d="M14.0014 16.785C13.6585 16.785 13.43 16.5564 13.43 16.2136C13.43 15.8707 13.6585 15.6422 14.0014 15.6422H15.1443C15.4871 15.6422 15.7157 15.4136 15.7157 15.0707C15.7157 14.7279 15.4871 14.4993 15.1443 14.4993H14.5728V13.9279C14.5728 13.585 14.3443 13.3564 14.0014 13.3564C13.6585 13.3564 13.43 13.585 13.43 13.9279V14.6136C12.7443 14.8422 12.2871 15.5279 12.2871 16.2136C12.2871 17.1279 13.0871 17.9279 14.0014 17.9279C14.3443 17.9279 14.5728 18.1564 14.5728 18.4993C14.5728 18.8422 14.3443 19.0707 14.0014 19.0707H12.8585C12.5157 19.0707 12.2871 19.2993 12.2871 19.6422C12.2871 19.985 12.5157 20.2136 12.8585 20.2136H13.43V20.785C13.43 21.1279 13.6585 21.3564 14.0014 21.3564C14.3443 21.3564 14.5728 21.1279 14.5728 20.785V20.0993C15.2585 19.8707 15.7157 19.185 15.7157 18.4993C15.7157 17.585 14.9157 16.785 14.0014 16.785Z" fill="#FFFEFE"/>
<path d="M24.8594 21.3566C23.9451 21.3566 23.0308 21.8137 22.3451 22.3852L19.4879 20.4423C19.9451 19.528 20.2879 18.4994 20.2879 17.3566C20.2879 16.6709 20.1737 15.9852 19.9451 15.2994L22.0022 14.3852C22.5737 15.0709 23.3737 15.6423 24.2879 15.6423C25.8879 15.6423 27.1451 14.3852 27.1451 12.7852C27.1451 11.1852 25.8879 9.92801 24.2879 9.92801C24.1737 9.92801 23.9451 9.92801 23.8308 9.92801L23.1451 8.32801C23.4879 7.98516 23.7165 7.52801 23.7165 7.07087C23.7165 6.15659 22.9165 5.35659 22.0022 5.35659C21.0879 5.35659 20.2879 6.15659 20.2879 7.07087C20.2879 7.98516 21.0879 8.78516 22.0022 8.78516H22.1165L22.8022 10.3852C22.0022 10.9566 21.4308 11.7566 21.4308 12.7852C21.4308 13.0137 21.4308 13.2423 21.5451 13.3566L19.4879 14.2709C18.4594 12.328 16.4022 11.0709 14.0022 11.0709C12.2879 11.0709 10.8022 11.7566 9.65938 12.7852L8.17366 11.528C8.6308 10.9566 8.85938 10.1566 8.85938 9.35659C8.85938 8.67087 8.6308 8.09944 8.40223 7.52801L10.9165 5.69944C11.3737 6.15659 12.0594 6.49944 12.8594 6.49944C14.3451 6.49944 15.6022 5.2423 15.7165 3.75658L18.2308 3.29944C18.4594 3.87087 19.0308 4.21373 19.7165 4.21373C20.6308 4.21373 21.4308 3.41373 21.4308 2.49944C21.4308 1.58516 20.6308 0.785156 19.7165 0.785156C18.9165 0.785156 18.2308 1.35658 18.0022 2.15658L15.4879 2.61373C15.1451 1.58516 14.1165 0.785156 12.8594 0.785156C11.2594 0.785156 10.0022 2.0423 10.0022 3.6423C10.0022 4.09944 10.1165 4.4423 10.2308 4.78516L7.71652 6.61373C7.0308 5.81373 6.00223 5.35659 4.85938 5.35659C2.68795 5.35659 0.859375 7.18516 0.859375 9.35659C0.859375 11.528 2.68795 13.3566 4.85938 13.3566C5.88795 13.3566 6.80223 13.0137 7.48795 12.328L8.97366 13.5852C8.17366 14.6137 7.71652 15.8709 7.71652 17.2423C7.71652 18.4994 8.05938 19.528 8.6308 20.5566L6.68795 22.0423C6.2308 21.5852 5.54509 21.3566 4.74509 21.3566C3.25938 21.3566 2.00223 22.6137 2.00223 24.2137C2.00223 25.8137 3.25938 27.0709 4.85938 27.0709C6.45938 27.0709 7.71652 25.8137 7.71652 24.2137C7.71652 23.7566 7.60223 23.4137 7.48795 22.9566L9.4308 21.4709C10.5737 22.728 12.2879 23.528 14.1165 23.528C16.0594 23.528 17.7737 22.6137 18.9165 21.2423L21.7737 23.1852C21.5451 23.7566 21.4308 24.328 21.4308 24.7852C21.4308 26.728 22.9165 28.2137 24.8594 28.2137C26.8022 28.2137 28.2879 26.728 28.2879 24.7852C28.2879 22.8423 26.8022 21.3566 24.8594 21.3566ZM21.4308 7.07087C21.4308 6.72801 21.6594 6.49944 22.0022 6.49944C22.3451 6.49944 22.5737 6.72801 22.5737 7.07087C22.5737 7.41373 22.3451 7.6423 22.0022 7.6423C21.6594 7.6423 21.4308 7.41373 21.4308 7.07087ZM24.2879 11.0709C25.2022 11.0709 26.0022 11.8709 26.0022 12.7852C26.0022 13.6994 25.2022 14.4994 24.2879 14.4994C23.3737 14.4994 22.5737 13.6994 22.5737 12.7852C22.5737 11.8709 23.3737 11.0709 24.2879 11.0709ZM19.7165 1.92801C20.0594 1.92801 20.2879 2.15658 20.2879 2.49944C20.2879 2.8423 20.0594 3.07087 19.7165 3.07087C19.3737 3.07087 19.1451 2.8423 19.1451 2.49944C19.1451 2.15658 19.3737 1.92801 19.7165 1.92801ZM12.8594 1.92801C13.7737 1.92801 14.5737 2.72801 14.5737 3.6423C14.5737 4.55659 13.7737 5.35659 12.8594 5.35659C11.9451 5.35659 11.1451 4.55659 11.1451 3.6423C11.1451 2.72801 11.9451 1.92801 12.8594 1.92801ZM4.85938 25.928C3.94509 25.928 3.14509 25.128 3.14509 24.2137C3.14509 23.2994 3.94509 22.4994 4.85938 22.4994C5.77366 22.4994 6.57366 23.2994 6.57366 24.2137C6.57366 25.128 5.77366 25.928 4.85938 25.928ZM4.85938 12.2137C3.25938 12.2137 2.00223 10.9566 2.00223 9.35659C2.00223 7.75659 3.25938 6.49944 4.85938 6.49944C6.45938 6.49944 7.71652 7.75659 7.71652 9.35659C7.71652 10.9566 6.45938 12.2137 4.85938 12.2137ZM14.0022 22.4994C11.1451 22.4994 8.85938 20.2137 8.85938 17.3566C8.85938 14.4994 11.1451 12.2137 14.0022 12.2137C16.8594 12.2137 19.1451 14.4994 19.1451 17.3566C19.1451 20.2137 16.8594 22.4994 14.0022 22.4994ZM24.8594 27.0709C23.6022 27.0709 22.5737 26.0423 22.5737 24.7852C22.5737 23.528 23.6022 22.4994 24.8594 22.4994C26.1165 22.4994 27.1451 23.528 27.1451 24.7852C27.1451 26.0423 26.1165 27.0709 24.8594 27.0709Z" fill="#FFFEFE"/>
</g>
<defs>
<clipPath id="clip0_489_2431">
<rect width="27.4286" height="27.4286" fill="white" transform="translate(0.859375 0.785156)"/>
</clipPath>
</defs>
</svg>
