<svg width="18" height="18" viewBox="0 0 18 18" fill="none" xmlns="http://www.w3.org/2000/svg">
<g clip-path="url(#clip0_461_1869)">
<path d="M9 0.808594C8.86992 0.808594 8.73984 0.812109 8.60977 0.818086L8.63789 1.4502C8.75742 1.44457 8.87695 1.44141 9 1.44141C13.1766 1.44141 16.5586 4.82344 16.5586 9C16.5586 13.1766 13.1766 16.5586 9 16.5586C5.85 16.5586 3.15176 14.6355 2.01621 11.8969L2.98758 11.6051L1.28496 10.3992L0.615234 12.3152L1.40801 12.0797C2.62547 15.075 5.56875 17.1914 9 17.1914C13.5211 17.1914 17.1914 13.5211 17.1914 9C17.1914 4.47891 13.5211 0.808594 9 0.808594ZM7.91719 0.880313C7.44961 0.941836 6.99961 1.04203 6.56016 1.17844L6.75703 1.77926C7.15781 1.6548 7.57617 1.56305 8.00156 1.5068L7.91719 0.880313ZM5.91328 1.41188C5.47734 1.58941 5.0625 1.80281 4.66875 2.04891L5.00273 2.58363C5.36484 2.35723 5.74805 2.1607 6.14883 1.99758L5.91328 1.41188ZM4.09219 2.44336C3.72312 2.72 3.37796 3.02718 3.06035 3.36164L3.51914 3.79336C3.81094 3.48504 4.13086 3.20238 4.46836 2.9475L4.29961 2.71652L4.09219 2.44336ZM6.53555 2.745L6.38086 3.35812L14.0098 5.30859L14.1645 4.69688L6.53555 2.745ZM2.60402 3.88477C2.31609 4.24336 2.0577 4.63008 1.8327 5.03437L2.38289 5.34375C2.59066 4.96758 2.82902 4.6125 3.09516 4.27852L2.60402 3.88477ZM7.09102 4.19414C6.95391 5.1082 7.18945 6.13477 7.59023 6.97852C7.81523 7.44961 8.08945 7.86445 8.36016 8.1668C8.50781 8.33203 8.65547 8.45859 8.78906 8.55L8.59922 9.29531C8.4375 9.30937 8.24766 9.35156 8.03672 9.42539C7.65352 9.55898 7.21406 9.79102 6.79219 10.0969C6.03281 10.6453 5.33672 11.4293 5.02031 12.2977L10.909 13.8059C11.0461 12.8918 10.8105 11.8652 10.4098 11.0215C10.1848 10.5504 9.91055 10.1355 9.63984 9.8332C9.49219 9.66797 9.34453 9.54141 9.21094 9.45L9.40078 8.70469C9.55898 8.68711 9.75234 8.64844 9.96328 8.57461C10.3465 8.44102 10.7859 8.20898 11.2078 7.90313C11.9672 7.35469 12.6633 6.5707 12.9797 5.70234L7.09102 4.19414ZM1.52016 5.65664C1.33277 6.07852 1.17914 6.51445 1.06312 6.96797L1.67766 7.11562C1.78418 6.70078 1.92516 6.3 2.09777 5.91328L1.52016 5.65664ZM0.921094 7.64648C0.847617 8.08594 0.808594 8.53945 0.808594 9V9.03164L1.44141 9.02461V9C1.44141 8.57461 1.47727 8.15625 1.54512 7.74844L0.921094 7.64648ZM3.99023 12.6914L3.83555 13.3031L11.4645 15.2543L11.6191 14.6426L3.99023 12.6914Z" fill="black" fill-opacity="0.5"/>
</g>
<defs>
<clipPath id="clip0_461_1869">
<rect width="18" height="18" fill="white"/>
</clipPath>
</defs>
</svg>
