<svg width="28" height="28" viewBox="0 0 28 28" fill="none" xmlns="http://www.w3.org/2000/svg">
<path d="M14.1278 0.444429C13.6482 0.450568 13.1686 0.759854 13.1686 1.40361V9.13703C8.19264 9.45148 6.45432 12.0709 6.45432 13.873H21.8013C21.8013 12.0709 20.0629 9.45148 15.087 9.13703V1.40361C15.087 0.735332 14.6074 0.438298 14.1278 0.444429ZM16.0462 0.444429V6.19953H23.7196L19.8829 3.32198L23.7196 0.444429H16.0462ZM2.61759 15.7914V17.7097H4.53595V25.3832H2.61759L0.699219 27.3016H27.5564L25.638 25.3832H23.7196V17.7097H25.638V15.7914H2.61759ZM8.37269 17.7097H10.2911V25.3832H8.37269V17.7097ZM12.2094 17.7097H16.0462V25.3832H12.2094V17.7097ZM17.9645 17.7097H19.8829V25.3832H17.9645V17.7097Z" fill="white"/>
</svg>
