<svg width="29" height="29" viewBox="0 0 29 29" fill="none" xmlns="http://www.w3.org/2000/svg">
<g clip-path="url(#clip0_477_2115)">
<path d="M27.8757 26.0415V8.21289H22.39V26.0415H21.0186V11.87H15.5329V26.0415H14.1614V15.5272H8.67573V26.0415H7.3043V19.6415H1.81858V26.0415H1.36144C1.1091 26.0415 0.904297 26.2458 0.904297 26.4986C0.904297 26.7514 1.1091 26.9557 1.36144 26.9557H1.81858H7.3043H8.67573H14.1614H15.5329H21.0186H22.39H27.8757C28.1281 26.9557 28.3329 26.7514 28.3329 26.4986C28.3329 26.2458 28.1281 26.0415 27.8757 26.0415ZM2.73287 26.0415V20.5557H6.39001V26.0415H2.73287ZM9.59001 26.0415V16.4415H13.2472V26.0415H9.59001ZM16.4472 26.0415V12.7843H20.1043V26.0415H16.4472ZM23.3043 26.0415V9.12718H26.9614V26.0415H23.3043Z" fill="white"/>
<path d="M4.5749 13.392C4.65215 13.392 4.73124 13.3723 4.80301 13.3307L21.3831 3.75818L20.3454 6.03932C20.2407 6.26926 20.3422 6.54035 20.5722 6.64457C20.6334 6.67292 20.6979 6.68572 20.7614 6.68572C20.9351 6.68572 21.1011 6.58606 21.1779 6.41783L22.8062 2.8384C22.8112 2.82697 22.8103 2.81463 22.8144 2.80275C22.8231 2.77852 22.83 2.7552 22.8346 2.7296C22.8368 2.7168 22.8442 2.70629 22.8451 2.69303C22.8455 2.68755 22.8432 2.68298 22.8437 2.67749C22.8446 2.66012 22.8428 2.64412 22.8419 2.62675C22.8405 2.6016 22.8364 2.57783 22.8309 2.55269C22.8272 2.53532 22.8263 2.51749 22.8204 2.50058C22.8149 2.48412 22.8053 2.4704 22.798 2.4544C22.792 2.44389 22.792 2.43155 22.7856 2.42058C22.7792 2.4096 22.7683 2.4032 22.761 2.39269C22.7514 2.37852 22.744 2.36343 22.7326 2.35063C22.7207 2.33692 22.7056 2.32732 22.6919 2.31498C22.6732 2.29806 22.6544 2.28252 22.6334 2.2688C22.6192 2.25966 22.6064 2.2496 22.5909 2.24183C22.5859 2.23955 22.5831 2.23498 22.5781 2.23269C22.5667 2.22766 22.5543 2.22858 22.5429 2.22446C22.5178 2.21532 22.4931 2.20892 22.467 2.20435C22.4551 2.20206 22.4455 2.1952 22.4332 2.19429L18.5191 1.81486C18.2654 1.78926 18.0442 1.97486 18.0199 2.22538C17.9952 2.4768 18.1795 2.70035 18.4304 2.72458L20.9246 2.9664L4.34587 12.539C4.1269 12.6651 4.05238 12.9449 4.17855 13.1634C4.26313 13.3102 4.41673 13.392 4.5749 13.392Z" fill="white"/>
</g>
<defs>
<clipPath id="clip0_477_2115">
<rect width="27.4286" height="27.4286" fill="white" transform="translate(0.904297 0.667969)"/>
</clipPath>
</defs>
</svg>
