<svg width="36" height="36" viewBox="0 0 36 36" fill="none" xmlns="http://www.w3.org/2000/svg">
<g clip-path="url(#clip0_477_1624)">
<path d="M35.6518 22.1998C34.6317 20.7598 33.5517 20.6998 30.9118 22.0797L25.6918 25.2598C25.0918 25.5598 23.8318 25.7398 22.0918 25.7998C22.0318 25.7998 21.9118 25.7998 21.8518 25.7998C22.1518 25.2598 21.9718 24.5997 21.4918 23.8198C20.5318 22.4397 18.9118 21.5998 17.1718 21.5998H14.8318C13.5718 21.5998 12.3718 21.1798 11.4118 20.4598C10.5118 19.7398 9.31179 19.6198 7.93184 19.9798C7.03184 20.1598 6.13184 20.5798 5.17186 21.0598C4.69184 21.3598 4.21188 21.5998 3.79184 21.8998C3.61184 22.0198 3.49181 22.0798 3.37186 22.1998C3.31188 22.2598 3.25184 22.3198 3.19186 22.3198L3.01172 22.4998V34.1998H12.0117C13.2717 34.1998 14.4717 34.0798 15.6717 33.8998L23.4717 32.6997C23.7717 32.6997 24.0117 32.6398 24.3117 32.5797C25.0317 32.4597 25.6917 32.0997 26.2917 31.6197L35.3517 24.5997C36.0717 23.9998 36.1918 22.9798 35.6518 22.1998ZM34.5718 23.5798L25.5117 30.7198C25.0917 31.1398 24.6117 31.3798 24.1317 31.4398C23.8317 31.4998 23.6517 31.4998 23.4118 31.4998H23.2917L15.4918 32.6998C14.3518 32.9398 13.2117 32.9998 12.0118 32.9998H4.21174V23.0998C4.27172 23.0398 4.39174 22.9798 4.45172 22.9198C4.8717 22.6798 5.29174 22.3798 5.7717 22.1398C6.61172 21.6598 7.45167 21.3599 8.23172 21.1799C9.25174 20.9399 10.0917 20.9999 10.6917 21.4799C11.8918 22.3799 13.3318 22.8599 14.8317 22.8599H17.1717C18.5518 22.8599 19.7517 23.4599 20.4717 24.5399C20.7717 25.0199 20.8317 25.2599 20.7117 25.3799C20.5917 25.5599 20.2317 25.6799 19.8117 25.7399C19.3917 25.7999 18.9717 25.7999 18.5517 25.7999C18.4917 25.7999 18.4317 26.9999 18.4317 26.9999C18.6716 26.9999 18.7917 26.9999 19.6317 26.9999C20.7117 26.9999 21.3717 26.9999 22.1517 26.9999C24.0717 26.9399 25.4517 26.7599 26.2917 26.2799L31.5117 23.0999C33.6717 21.9599 34.0917 21.9599 34.6917 22.8599C34.8717 23.0998 34.8117 23.3998 34.5718 23.5798Z" fill="white"/>
<path d="M0.0117188 20.3994V35.9994H4.2117V20.3994H0.0117188ZM3.01167 34.7994H1.21167V21.5994H3.01167V34.7994Z" fill="white"/>
<path d="M18.4313 25.7998H12.6114C10.8114 25.7998 9.61133 26.5798 9.61133 28.1998C9.61133 28.5598 9.85131 28.7998 10.2113 28.7998C10.5713 28.7998 10.8113 28.5598 10.8113 28.1998C10.8113 27.3598 11.4113 26.9998 12.6113 26.9998H18.4313C18.7913 26.9998 19.0312 26.7598 19.0312 26.3998C19.0312 26.0398 18.7913 25.7998 18.4313 25.7998Z" fill="white"/>
<path d="M18.0121 10.7998C17.6521 10.7998 17.4121 11.0398 17.4121 11.3998V17.9998C17.4121 18.3598 17.6521 18.5998 18.0121 18.5998C18.3721 18.5998 18.6121 18.3598 18.6121 17.9998V11.3998C18.6121 11.0398 18.3721 10.7998 18.0121 10.7998Z" fill="white"/>
<path d="M21.6121 12C19.2721 12 17.4121 13.86 17.4121 16.2V16.8H18.0121C20.3521 16.8 22.2121 14.94 22.2121 12.6V12H21.6121ZM18.7321 15.48C18.9721 14.4 19.8121 13.56 20.9521 13.26C20.7121 14.4 19.8121 15.24 18.7321 15.48Z" fill="white"/>
<path d="M31.272 19.9801L31.152 19.8601C31.092 19.8001 31.032 19.7401 30.912 19.6801C30.732 19.5601 30.492 19.3801 30.312 19.2601C30.2521 19.2001 30.192 19.2001 30.132 19.1401C29.7121 18.8401 29.412 18.6601 29.1721 18.6001C28.6321 18.4201 24.912 18.4201 24.0721 18.6001C24.0721 18.6001 23.7121 18.3601 23.1121 17.8201C21.9121 16.7401 21.5521 16.5001 20.8921 16.8601C20.7721 16.9201 20.1122 17.1001 19.2721 17.2801C19.0322 17.3401 18.7321 17.4001 18.4321 17.4601C17.6521 17.6401 15.7321 18.0001 15.6721 18.0001C15.5521 18.0601 14.2921 18.3601 12.2521 18.9001C11.5321 19.0801 10.6921 19.3201 9.91214 19.5001C9.43212 19.6201 9.43212 19.6201 9.13216 19.6801C8.89219 19.8001 8.89219 19.8001 8.83214 19.8001L8.59216 19.8601L7.99219 21.0601L9.01221 21.0001C9.05208 20.9961 9.09131 20.9931 9.13012 20.9907L9.13223 21.0001C9.16943 21.0001 9.1837 21.0001 9.24614 20.9858C9.73917 20.9746 10.1483 21.0922 10.5122 21.3001L10.6922 21.4201H10.8722C12.0722 22.3201 13.5122 22.8001 15.0122 22.8001H17.3522C18.7322 22.8001 19.9322 23.4001 20.6522 24.4801C21.0721 25.0801 21.0122 25.3201 20.7722 25.4401C20.4722 25.6801 19.8722 25.8001 19.2122 25.8001V27.0001C19.3322 27.0001 19.5122 27.0001 19.8121 27.0001C20.4121 27.0001 20.7721 27.0001 21.1922 27.0001C23.5921 27.0001 25.2722 26.8201 26.2322 26.2801L31.4522 23.1001C31.5121 23.1001 31.5722 23.0401 31.6921 22.9801L32.1722 22.7401L31.272 19.9801ZM25.692 25.4401C25.092 25.7401 23.832 25.9201 22.032 25.9801C22.272 25.4401 22.1521 24.7201 21.672 24.0001C20.7121 22.6201 19.0921 21.7801 17.352 21.7801H15.012C13.752 21.7801 12.552 21.3601 11.592 20.6401C11.5321 20.4601 11.472 20.4002 11.412 20.4002C11.832 20.2801 12.192 20.1602 12.552 20.1001C14.532 19.5601 15.792 19.2601 15.912 19.2001C15.912 19.2001 17.8321 18.8401 18.612 18.6601C18.9121 18.6002 19.212 18.5401 19.512 18.4801C20.412 18.3001 21.0721 18.1201 21.372 18.0001C21.432 18.0001 21.492 18.0601 21.552 18.1201C21.732 18.2402 21.912 18.4202 22.332 18.7802C23.352 19.7401 23.712 19.9802 24.312 19.8602C24.972 19.7401 28.452 19.7401 28.812 19.8602C28.872 19.8602 29.172 20.0402 29.472 20.2801C29.532 20.3401 29.592 20.3401 29.592 20.4002C29.772 20.5202 29.952 20.6401 30.132 20.8201C30.192 20.8201 30.192 20.8801 30.2521 20.8801L30.7321 22.3201L25.692 25.4401Z" fill="white"/>
<path d="M19.272 6.18002L17.532 4.8C17.4119 4.67998 17.4119 4.49998 17.472 4.44C17.592 4.31998 17.772 4.20002 18.012 4.20002C18.432 4.20002 18.612 4.38002 18.612 4.8C18.612 5.16 18.8519 5.39998 19.2119 5.39998C19.5719 5.39998 19.8119 5.16 19.8119 4.8C19.8119 3.72 19.0919 3 18.0119 3C17.4119 3 16.8719 3.23998 16.5119 3.72C15.9719 4.38002 16.092 5.28002 16.7519 5.82002L18.4919 7.20005C18.612 7.32007 18.612 7.50007 18.5519 7.56005C18.4319 7.74005 18.1919 7.80002 17.9519 7.80002C17.532 7.80002 17.352 7.62002 17.352 7.20005C17.352 6.84005 17.112 6.60007 16.752 6.60007C16.392 6.60007 16.212 6.84005 16.212 7.20005C16.212 8.28005 16.932 9.00005 18.012 9.00005C18.612 9.00005 19.152 8.76007 19.512 8.28005C20.052 7.62002 19.9319 6.72002 19.272 6.18002Z" fill="white"/>
<path d="M18.0118 0C14.7117 0 12.0117 2.7 12.0117 5.99998C12.0117 9.29995 14.7117 12 18.0117 12C21.3117 12 24.0117 9.29995 24.0117 5.99998C24.0117 2.7 21.3117 0 18.0118 0ZM18.0118 10.8C15.3717 10.8 13.2117 8.64 13.2117 5.99998C13.2117 3.35995 15.3717 1.19995 18.0118 1.19995C20.6518 1.19995 22.8118 3.35995 22.8118 5.99998C22.8117 8.64 20.6517 10.8 18.0118 10.8Z" fill="white"/>
</g>
<defs>
<clipPath id="clip0_477_1624">
<rect width="36" height="36" fill="white"/>
</clipPath>
</defs>
</svg>
