<svg width="16" height="16" viewBox="0 0 16 16" fill="none" xmlns="http://www.w3.org/2000/svg">
<g clip-path="url(#clip0_461_1876)">
<path d="M2 0.333008H14M2 15.6663H14M3.66667 15.6663V11.6663L5.57067 10.5237C6.00656 10.2622 6.3673 9.89227 6.61776 9.44995C6.86822 9.00763 6.99986 8.50798 6.99986 7.99967C6.99986 7.49137 6.86822 6.99172 6.61776 6.5494C6.3673 6.10708 6.00656 5.73716 5.57067 5.47567L3.66667 4.33301V0.333008M12.3333 0.333008V4.33301L10.4293 5.47567C9.99361 5.73729 9.63303 6.10725 9.38269 6.54956C9.13235 6.99186 9.00077 7.49144 9.00077 7.99967C9.00077 8.50791 9.13235 9.00749 9.38269 9.44979C9.63303 9.89209 9.99361 10.2621 10.4293 10.5237L12.3333 11.6663V15.6663" stroke="black"/>
</g>
<defs>
<clipPath id="clip0_461_1876">
<rect width="16" height="16" fill="white"/>
</clipPath>
</defs>
</svg>
