<svg width="24" height="24" viewBox="0 0 24 24" fill="none" xmlns="http://www.w3.org/2000/svg">
<path fill-rule="evenodd" clip-rule="evenodd" d="M3 2H18.5V4.5H17.5V3H4V14.5H14.6935V15.5H3V2ZM18 8.5C18.3978 8.5 18.7794 8.34196 19.0607 8.06066C19.342 7.77936 19.5 7.39782 19.5 7C19.5 6.60218 19.342 6.22064 19.0607 5.93934C18.7794 5.65804 18.3978 5.5 18 5.5C17.6022 5.5 17.2206 5.65804 16.9393 5.93934C16.658 6.22064 16.5 6.60218 16.5 7C16.5 7.39782 16.658 7.77936 16.9393 8.06066C17.2206 8.34196 17.6022 8.5 18 8.5ZM19.0155 9.505C19.665 9.505 20.179 9.797 20.5155 10.248C20.83 10.6705 20.963 11.193 20.993 11.6755C21.0224 12.1704 20.955 12.6664 20.7945 13.1355C20.6445 13.5705 20.391 14.0205 20 14.329V19.25C20.0004 19.4384 19.9298 19.6201 19.8023 19.7589C19.6748 19.8976 19.4997 19.9833 19.312 19.9989C19.1242 20.0144 18.9374 19.9587 18.7888 19.8429C18.6402 19.727 18.5407 19.5594 18.51 19.3735L17.865 15.5H17.716L16.987 19.388C16.9524 19.5715 16.8506 19.7355 16.7014 19.8479C16.5523 19.9603 16.3666 20.013 16.1807 19.9958C15.9948 19.9785 15.8219 19.8925 15.6961 19.7546C15.5702 19.6167 15.5003 19.4367 15.5 19.25V12.1165C15.4 12.2688 15.3013 12.422 15.204 12.576L15.165 12.6375L15.155 12.6535L15.1525 12.658C15.0851 12.7662 14.9913 12.8554 14.8798 12.9173C14.7683 12.9791 14.643 13.0116 14.5155 13.0115H12.0155C11.8166 13.0115 11.6258 12.9325 11.4852 12.7918C11.3445 12.6512 11.2655 12.4604 11.2655 12.2615C11.2655 12.0626 11.3445 11.8718 11.4852 11.7312C11.6258 11.5905 11.8166 11.5115 12.0155 11.5115H14.104C14.2255 11.3235 14.3855 11.0795 14.5535 10.8345C14.7285 10.579 14.9215 10.3085 15.0935 10.0965C15.177 9.993 15.2705 9.885 15.3645 9.7965C15.4105 9.753 15.4745 9.6965 15.5525 9.6465C15.6902 9.55615 15.8509 9.50721 16.0155 9.5055L19.0155 9.505Z" fill="black"/>
</svg>
