<svg width="16" height="16" viewBox="0 0 16 16" fill="none" xmlns="http://www.w3.org/2000/svg">
<path d="M4.66602 6L7.99935 8.33333L11.3327 6" stroke="black" stroke-opacity="0.5" stroke-width="1.5" stroke-linecap="round" stroke-linejoin="round"/>
<path d="M1.33301 11.333V4.66634C1.33301 4.31272 1.47348 3.97358 1.72353 3.72353C1.97358 3.47348 2.31272 3.33301 2.66634 3.33301H13.333C13.6866 3.33301 14.0258 3.47348 14.2758 3.72353C14.5259 3.97358 14.6663 4.31272 14.6663 4.66634V11.333C14.6663 11.6866 14.5259 12.0258 14.2758 12.2758C14.0258 12.5259 13.6866 12.6663 13.333 12.6663H2.66634C2.31272 12.6663 1.97358 12.5259 1.72353 12.2758C1.47348 12.0258 1.33301 11.6866 1.33301 11.333Z" stroke="black" stroke-opacity="0.5" stroke-width="1.5"/>
</svg>
