<svg width="37" height="37" viewBox="0 0 37 37" fill="none" xmlns="http://www.w3.org/2000/svg">
<path d="M18.5003 34.888C17.4674 34.888 16.419 34.6567 15.602 34.1788L7.12284 29.2917C3.66951 26.9638 3.45367 26.6092 3.45367 22.9555V14.0446C3.45367 10.3909 3.65409 10.0363 7.04576 7.73923L15.5865 2.8059C17.2053 1.86548 19.749 1.86548 21.3678 2.8059L29.8778 7.7084C33.3311 10.0363 33.547 10.3909 33.547 14.0446V22.9401C33.547 26.5938 33.3465 26.9484 29.9549 29.2455L21.414 34.1788C20.5815 34.6567 19.5332 34.888 18.5003 34.888ZM18.5003 4.42465C17.8528 4.42465 17.2207 4.54798 16.7736 4.81007L8.29451 9.71256C5.78159 11.4084 5.78159 11.4084 5.78159 14.0446V22.9401C5.78159 25.5763 5.78159 25.5763 8.35617 27.3184L16.7736 32.1746C17.6832 32.6988 19.3328 32.6988 20.2424 32.1746L28.7215 27.2721C31.219 25.5763 31.219 25.5763 31.219 22.9401V14.0446C31.219 11.4084 31.219 11.4084 28.6445 9.66632L20.227 4.81007C19.7799 4.54798 19.1478 4.42465 18.5003 4.42465Z" fill="black"/>
<path d="M18.5003 34.888C17.4674 34.888 16.419 34.6567 15.602 34.1788L7.12284 29.2917C3.66951 26.9638 3.45367 26.6092 3.45367 22.9555V14.0446C3.45367 10.3909 3.65409 10.0363 7.04576 7.73923L15.5865 2.8059C17.2053 1.86548 19.749 1.86548 21.3678 2.8059L29.8778 7.7084C33.3311 10.0363 33.547 10.3909 33.547 14.0446V22.9401C33.547 26.5938 33.3465 26.9484 29.9549 29.2455L21.414 34.1788C20.5815 34.6567 19.5332 34.888 18.5003 34.888ZM18.5003 4.42465C17.8528 4.42465 17.2207 4.54798 16.7736 4.81007L8.29451 9.71256C5.78159 11.4084 5.78159 11.4084 5.78159 14.0446V22.9401C5.78159 25.5763 5.78159 25.5763 8.35617 27.3184L16.7736 32.1746C17.6832 32.6988 19.3328 32.6988 20.2424 32.1746L28.7215 27.2721C31.219 25.5763 31.219 25.5763 31.219 22.9401V14.0446C31.219 11.4084 31.219 11.4084 28.6445 9.66632L20.227 4.81007C19.7799 4.54798 19.1478 4.42465 18.5003 4.42465Z" fill="url(#paint0_linear_342_89)"/>
<path d="M18.5 24.2812C15.3088 24.2812 12.7188 21.6912 12.7188 18.5C12.7188 15.3088 15.3088 12.7188 18.5 12.7188C21.6912 12.7188 24.2812 15.3088 24.2812 18.5C24.2812 21.6912 21.6912 24.2812 18.5 24.2812ZM18.5 15.0312C16.5883 15.0312 15.0312 16.5883 15.0312 18.5C15.0312 20.4117 16.5883 21.9688 18.5 21.9688C20.4117 21.9688 21.9688 20.4117 21.9688 18.5C21.9688 16.5883 20.4117 15.0312 18.5 15.0312Z" fill="black"/>
<path d="M18.5 24.2812C15.3088 24.2812 12.7188 21.6912 12.7188 18.5C12.7188 15.3088 15.3088 12.7188 18.5 12.7188C21.6912 12.7188 24.2812 15.3088 24.2812 18.5C24.2812 21.6912 21.6912 24.2812 18.5 24.2812ZM18.5 15.0312C16.5883 15.0312 15.0312 16.5883 15.0312 18.5C15.0312 20.4117 16.5883 21.9688 18.5 21.9688C20.4117 21.9688 21.9688 20.4117 21.9688 18.5C21.9688 16.5883 20.4117 15.0312 18.5 15.0312Z" fill="url(#paint1_linear_342_89)"/>
<defs>
<linearGradient id="paint0_linear_342_89" x1="32.5002" y1="34.888" x2="-0.398275" y2="30.4119" gradientUnits="userSpaceOnUse">
<stop stop-color="#0F87B3"/>
<stop offset="1" stop-color="#462DA1"/>
</linearGradient>
<linearGradient id="paint1_linear_342_89" x1="23.8791" y1="24.2812" x2="11.2816" y2="22.4138" gradientUnits="userSpaceOnUse">
<stop stop-color="#0F87B3"/>
<stop offset="1" stop-color="#462DA1"/>
</linearGradient>
</defs>
</svg>
