<svg width="22" height="22" viewBox="0 0 22 22" fill="none" xmlns="http://www.w3.org/2000/svg">
<path d="M19.3497 22.0002H0C0 22.0002 0.0253945 21.6929 0.0620469 21.2474C0.129723 20.427 0.23968 19.1384 0.307355 18.4477C0.408848 17.382 1.11934 16.5841 2.13997 16.2288C2.64748 16.0512 3.97259 15.5634 5.16802 15.1179L5.19905 15.1066C5.61632 14.9516 6.0167 14.805 6.35783 14.6753C6.41983 14.6527 6.47909 14.6302 6.53825 14.6104C6.80329 14.5117 7.0232 14.4272 7.18107 14.3708C7.24028 14.3482 7.28819 14.3285 7.32768 14.3144H7.33051C7.39819 14.289 7.43484 14.2749 7.43484 14.2749L9.6763 14.3398L9.81445 14.3369L11.9149 14.2749C11.9149 14.2749 11.9516 14.289 12.0221 14.3144C12.0615 14.3285 12.1123 14.3482 12.1715 14.3708C12.3407 14.4328 12.5803 14.523 12.8707 14.633C12.9102 14.6471 12.9497 14.6611 12.992 14.6781C13.4685 14.8529 14.0577 15.0728 14.647 15.2899V15.2927C14.7795 15.3407 14.912 15.3886 15.0445 15.4365C15.239 15.5098 15.4336 15.5803 15.6225 15.6508C15.6845 15.6734 15.7465 15.6959 15.8058 15.7185C15.927 15.7636 16.0426 15.8059 16.1553 15.8482C16.4401 15.9525 16.6967 16.0455 16.8997 16.1188C16.942 16.1329 16.9815 16.147 17.0181 16.1611C17.0914 16.1865 17.1563 16.209 17.2126 16.2288C18.2304 16.584 18.9438 17.3819 19.0453 18.4477C19.1467 19.5134 19.3497 22.0002 19.3497 22.0002Z" fill="#607280"/>
<path d="M9.60868 15.6876V21.9637H6.53547V19.3557L3.89087 19.8689L4.82974 15.2619L5.16807 15.1181L5.19905 15.1068L6.34941 14.6219L6.4509 14.5796L6.5383 14.6106L7.18112 14.8362L9.60868 15.6876Z" fill="#E9E8E8"/>
<path d="M13.0196 14.5786L14.6404 15.2612L15.5788 19.8678L12.9345 19.3557V21.9628H9.86316V15.688L13.0196 14.5786Z" fill="#E9E8E8"/>
<path d="M14.9993 4.63513V6.57207C14.9993 6.8371 14.9993 6.9245 14.9993 6.9245C12.4534 6.9245 11.4553 8.14812 10.3698 9.16029C10.1894 9.32662 10.0089 9.48733 9.81442 9.63677C9.19696 10.1161 8.47517 10.4657 7.40379 10.4657C7.44044 10.1386 7.35583 9.77775 7.18104 9.42249C6.682 8.39902 5.45838 7.41787 4.35034 7.4094C4.35034 7.14158 4.35034 7.05697 4.35034 7.05697V4.63508C4.35034 4.19525 4.45746 3.70747 4.66891 3.21973C5.12846 2.14272 6.07579 1.05441 7.42914 0.459508C8.08609 0.172004 8.83886 0 9.67623 0C10.1358 0 10.57 0.0507461 10.976 0.149445C11.7316 0.324242 12.3942 0.648484 12.9496 1.05729C13.0144 1.1052 13.0765 1.15315 13.1357 1.2039C13.1413 1.20673 13.1469 1.21236 13.1526 1.21516C13.1555 1.21799 13.1582 1.22079 13.1582 1.22079C13.209 1.26027 13.2569 1.30255 13.302 1.34484C13.3471 1.38149 13.3894 1.42098 13.4317 1.46042C13.4824 1.50554 13.5276 1.55066 13.5727 1.59857C13.6319 1.65778 13.6883 1.71415 13.7418 1.7762C13.8011 1.84104 13.8574 1.90588 13.9139 1.97355C13.9195 1.97918 13.9251 1.98481 13.9279 1.99328C13.9308 1.99328 13.9308 1.99328 13.9336 1.99611C13.9392 1.99895 13.942 2.00458 13.9449 2.01021C14.0943 2.19063 14.2268 2.37673 14.3424 2.56846C14.3678 2.60795 14.3904 2.64739 14.4129 2.68688C14.489 2.81656 14.5595 2.94907 14.6187 3.08159C14.6384 3.11824 14.6525 3.15773 14.6695 3.19438C14.6751 3.20568 14.6807 3.21973 14.6864 3.23104C14.7259 3.32406 14.7625 3.41713 14.7963 3.51016C14.8189 3.58063 14.8415 3.6483 14.8612 3.72161C14.8837 3.80054 14.9035 3.87948 14.9204 3.95845C14.9373 4.03459 14.9514 4.11353 14.9627 4.18962C14.974 4.24884 14.9796 4.31084 14.9852 4.37005C14.9965 4.46033 14.9993 4.54773 14.9993 4.63513Z" fill="#CDA671"/>
<path d="M12.1714 9.16016H7.18103V16.0706H12.1714V9.16016Z" fill="#FCEDC3"/>
<path d="M14.9994 6.57231C14.9994 6.83734 14.9994 6.92474 14.9994 6.92474V9.34663C14.9994 9.41147 14.9966 9.47631 14.9909 9.54115C14.9881 9.59473 14.9825 9.65111 14.9769 9.70748C14.9712 9.76106 14.9628 9.8146 14.9515 9.86818C14.9458 9.902 14.9402 9.93302 14.9345 9.96684C14.9176 10.043 14.9007 10.1191 14.8809 10.1952C14.864 10.2573 14.8443 10.3193 14.8246 10.3813C14.7908 10.4856 14.7513 10.5928 14.709 10.6999C14.6864 10.7535 14.6639 10.8071 14.6385 10.8606C14.5793 10.9931 14.5116 11.1285 14.4355 11.261C14.3989 11.323 14.3622 11.385 14.3227 11.4471C14.2917 11.495 14.2607 11.5458 14.2269 11.5937C14.0774 11.8164 13.9083 12.0335 13.7137 12.2393C13.6743 12.2816 13.6348 12.3239 13.5925 12.3662C13.5361 12.4283 13.4769 12.4846 13.4177 12.5354C13.3698 12.5805 13.3218 12.6228 13.2739 12.6651C13.2457 12.6905 13.2203 12.713 13.1921 12.7327C13.147 12.7694 13.1019 12.806 13.0568 12.8427C12.9835 12.9019 12.9073 12.9583 12.8312 13.009C12.772 13.0513 12.7128 13.0908 12.6508 13.1274C12.6339 13.1415 12.6198 13.1528 12.6029 13.1585C12.5381 13.2008 12.4732 13.2402 12.4056 13.2741C12.383 13.291 12.3604 13.3051 12.3379 13.3135C12.2843 13.3446 12.2279 13.3756 12.1715 13.4009V13.4038C11.4949 13.745 10.7055 13.9592 9.8145 13.979C9.76938 13.9818 9.72426 13.9818 9.67635 13.9818C8.72902 13.9818 7.89448 13.7619 7.18116 13.4038C5.36826 12.496 4.35046 10.6916 4.35046 9.34667V7.40973C4.35046 7.1419 4.35046 7.0573 4.35046 7.0573C7.5167 7.0573 8.29203 5.16263 9.8145 4.14483C10.3727 3.77268 11.0325 3.51611 11.946 3.51611C11.805 4.78481 13.5079 6.56105 14.9994 6.57231Z" fill="#FCF7CB"/>
<path d="M10.813 15.7725H8.53796V17.3653H10.813V15.7725Z" fill="#E01E25"/>
<path d="M10.813 17.1943H8.53796V17.7059H10.813V17.1943Z" fill="#C12132"/>
<path d="M9.67625 15.6874L9.60862 15.7522L9.58885 15.772L9.28154 16.0708L8.53724 16.7898L7.00347 18.2756L6.35782 14.6752L6.34935 14.6216L6.32117 14.4637L7.00347 14.1226L7.18106 14.2269L7.32767 14.3143H7.3305L9.67625 15.6874Z" fill="white"/>
<path d="M9.67529 15.6878L12.3482 14.1235L13.0306 14.4647L12.3482 18.275L9.67529 15.6878Z" fill="white"/>
<path d="M10.813 17.5142H8.53796V21.998H10.813V17.5142Z" fill="#E01E25"/>
<path opacity="0.1" d="M19.3497 22.0002H9.81445V0.00585938C10.2233 0.0143242 10.6095 0.0650703 10.9761 0.149633C11.7317 0.32443 12.3943 0.648672 12.9497 1.05748C13.0145 1.10539 13.0766 1.15334 13.1358 1.20409C13.1414 1.20692 13.147 1.21255 13.1527 1.21534C13.1555 1.21818 13.1583 1.22097 13.1583 1.22097C13.2091 1.26046 13.257 1.30274 13.3021 1.34502C13.3472 1.38168 13.3895 1.42116 13.4318 1.46061C13.4825 1.50573 13.5276 1.55084 13.5728 1.59875C13.632 1.65513 13.6912 1.71434 13.7419 1.77639C13.8011 1.84123 13.8575 1.90607 13.9139 1.97374C13.9224 1.97937 13.928 1.98784 13.9337 1.9963C13.9393 1.99914 13.9421 2.00477 13.945 2.01039C14.0944 2.19082 14.2269 2.37692 14.3425 2.56864C14.3679 2.60813 14.3905 2.64758 14.413 2.68707C14.4891 2.81675 14.5596 2.94926 14.6188 3.08178C14.6385 3.11843 14.6526 3.15792 14.6695 3.19457C14.6752 3.20587 14.6808 3.21992 14.6865 3.23122C14.726 3.32425 14.7626 3.41732 14.7964 3.51035C14.819 3.58082 14.8415 3.64849 14.8613 3.7218C14.8838 3.80073 14.9035 3.87966 14.9205 3.95864C14.9374 4.03478 14.9515 4.11371 14.9628 4.18981C14.9741 4.24902 14.9797 4.31103 14.9853 4.37024C14.9966 4.46047 14.9994 4.54787 14.9994 4.63527V6.57222C14.9994 6.83725 14.9994 6.92464 14.9994 6.92464V9.34654C14.9994 9.41138 14.9966 9.47622 14.9909 9.54105C14.9881 9.59464 14.9825 9.65101 14.9768 9.70739C14.9487 9.92447 14.8979 10.1528 14.8246 10.3812C14.8134 10.4207 14.7993 10.4574 14.7851 10.4968C14.7626 10.5645 14.7372 10.6322 14.709 10.6998C14.6864 10.7534 14.6639 10.8069 14.6385 10.8605C14.6103 10.9282 14.5765 10.993 14.5426 11.0607C14.5088 11.1284 14.4722 11.196 14.4355 11.2609C14.3989 11.3229 14.3622 11.3849 14.3227 11.447C14.2945 11.4949 14.2635 11.54 14.2325 11.5851C14.2325 11.588 14.2297 11.5907 14.2269 11.5936C14.1789 11.6669 14.1282 11.7374 14.0746 11.8079C14.007 11.8981 13.9365 11.9883 13.8632 12.0729C13.8124 12.1321 13.7617 12.1913 13.7053 12.2477C13.6687 12.2872 13.632 12.3266 13.5925 12.3661C13.5361 12.4253 13.4769 12.4817 13.4177 12.5353C13.3782 12.5719 13.336 12.6086 13.2965 12.6452C13.2627 12.6763 13.2288 12.7073 13.1922 12.7326C13.1471 12.7693 13.1019 12.8059 13.0568 12.8426C13.0484 12.8511 13.0399 12.8595 13.0314 12.8623C12.9807 12.9046 12.9271 12.9441 12.8707 12.9807C12.8594 12.992 12.8453 13.0033 12.8312 13.0089C12.772 13.0512 12.7128 13.0907 12.6508 13.1274C12.6339 13.1414 12.6198 13.1528 12.6029 13.1584C12.5324 13.2035 12.4619 13.2458 12.3915 13.2824C12.3745 13.2965 12.3548 13.3078 12.3379 13.3135C12.3012 13.336 12.2674 13.3557 12.2308 13.3698C12.211 13.3839 12.1913 13.3924 12.1715 13.4036V14.2269L12.3492 14.1226L13.0315 14.4638L13.0089 14.5822H13.0118L13.0202 14.5794L14.6414 15.2617L14.647 15.2898C14.7147 15.3152 14.7795 15.3378 14.8444 15.3631C15.5041 15.6085 16.1526 15.8453 16.6319 16.0229C16.6799 16.0398 16.7278 16.0567 16.7729 16.0736C16.9505 16.1357 17.0999 16.1892 17.2127 16.2287C18.2305 16.584 18.9439 17.3819 19.0453 18.4476C19.1468 19.5135 19.3497 22.0002 19.3497 22.0002Z" fill="#4D4948"/>
</svg>
