<svg width="24" height="24" viewBox="0 0 24 24" fill="none" xmlns="http://www.w3.org/2000/svg">
<path d="M19.485 20.1536L13.223 13.8916C12.723 14.3176 12.148 14.6472 11.498 14.8806C10.848 15.1139 10.1947 15.2306 9.53798 15.2306C7.93665 15.2306 6.58132 14.6762 5.47198 13.5676C4.36265 12.4582 3.80798 11.1032 3.80798 9.50255C3.80798 7.90189 4.36198 6.54622 5.46998 5.43555C6.57865 4.32422 7.93332 3.76855 9.53398 3.76855C11.1353 3.76855 12.4913 4.32322 13.602 5.43255C14.7127 6.54189 15.268 7.89755 15.268 9.49955C15.268 10.1942 15.145 10.8666 14.899 11.5166C14.6523 12.1666 14.329 12.7226 13.929 13.1846L20.191 19.4456L19.484 20.1536H19.485ZM9.53798 14.2296C10.8647 14.2296 11.985 13.7729 12.899 12.8596C13.8123 11.9462 14.269 10.8259 14.269 9.49855C14.269 8.17189 13.8123 7.05189 12.899 6.13855C11.9857 5.22522 10.8656 4.76855 9.53898 4.76855C8.21232 4.76855 7.09198 5.22522 6.17798 6.13855C5.26465 7.05189 4.80798 8.17189 4.80798 9.49855C4.80798 10.8252 5.26465 11.9452 6.17798 12.8586C7.09132 13.7719 8.21132 14.2296 9.53798 14.2296Z" fill="#D9D9D9"/>
</svg>
