<svg width="24" height="24" viewBox="0 0 24 24" fill="none" xmlns="http://www.w3.org/2000/svg">
<path d="M17.212 20.404L17.104 19.519C16.724 19.4357 16.4113 19.3257 16.166 19.189C15.9207 19.053 15.6873 18.8607 15.466 18.612L14.631 18.946L14.092 18.131L14.781 17.554C14.6703 17.2007 14.615 16.8557 14.615 16.519C14.615 16.183 14.6703 15.8383 14.781 15.485L14.092 14.908L14.631 14.092L15.465 14.427C15.687 14.1657 15.9207 13.9697 16.166 13.839C16.412 13.709 16.7247 13.6023 17.104 13.519L17.212 12.635H18.212L18.319 13.519C18.699 13.6023 19.0117 13.709 19.257 13.839C19.5023 13.9697 19.7357 14.1657 19.957 14.427L20.792 14.092L21.331 14.908L20.642 15.485C20.7527 15.8383 20.808 16.183 20.808 16.519C20.808 16.855 20.7527 17.2 20.642 17.554L21.331 18.131L20.792 18.946L19.958 18.612C19.736 18.8607 19.5023 19.053 19.257 19.189C19.011 19.3257 18.6983 19.4357 18.319 19.519L18.212 20.404H17.212ZM17.712 18.674C18.3 18.674 18.806 18.462 19.23 18.038C19.6533 17.614 19.865 17.1077 19.865 16.519C19.865 15.931 19.6533 15.425 19.23 15.001C18.806 14.577 18.3 14.365 17.712 14.365C17.1233 14.365 16.617 14.577 16.193 15.001C15.7697 15.425 15.558 15.931 15.558 16.519C15.558 17.1077 15.7697 17.614 16.193 18.038C16.617 18.4613 17.1233 18.674 17.712 18.674ZM4.615 19C4.155 19 3.771 18.846 3.463 18.538C3.15433 18.2293 3 17.845 3 17.385V6.615C3 6.155 3.15433 5.771 3.463 5.463C3.771 5.15433 4.155 5 4.615 5H9.596L11.596 7H19.385C19.845 7 20.229 7.15433 20.537 7.463C20.8457 7.771 21 8.155 21 8.615V10.91C20.4933 10.6087 19.9593 10.3817 19.398 10.229C18.8367 10.0763 18.26 10 17.668 10C15.8033 10 14.2547 10.649 13.022 11.947C11.7893 13.245 11.173 14.767 11.173 16.513C11.173 16.9443 11.2153 17.365 11.3 17.775C11.3847 18.185 11.5113 18.5933 11.68 19H4.616H4.615Z" fill="black"/>
</svg>
