<svg width="72" height="83" viewBox="0 0 72 83" fill="none" xmlns="http://www.w3.org/2000/svg">
<path d="M31.8572 2.65687C34.4078 1.04927 37.6576 1.04927 40.2083 2.65687L67.7672 20.0264C70.0356 21.4561 71.4111 23.9466 71.4111 26.624V56.8454C71.4111 59.63 69.9242 62.2035 67.5095 63.5987L39.9506 79.5207C37.5271 80.9209 34.5383 80.9209 32.1149 79.5207L4.55595 63.5987C2.14115 62.2035 0.654297 59.63 0.654297 56.8454V26.624C0.654297 23.9466 2.02981 21.4561 4.29825 20.0264L31.8572 2.65687Z" fill="url(#paint0_linear_493_3679)"/>
<path d="M47.426 40.8409C47.2864 40.6986 47.1198 40.5854 46.936 40.5078C46.7521 40.4304 46.5546 40.3901 46.355 40.3897C46.1555 40.3892 45.9578 40.4282 45.7734 40.5047C45.5892 40.5812 45.422 40.6935 45.2817 40.8351C45.1413 40.9767 45.0306 41.1448 44.956 41.3295C44.8814 41.5142 44.8444 41.712 44.8471 41.9112C44.8499 42.1102 44.8923 42.307 44.972 42.4896C45.0517 42.6722 45.167 42.8372 45.3112 42.9748C46.5872 44.2277 47.5994 45.7225 48.2887 47.3711C48.9779 49.0198 49.3304 50.7892 49.325 52.5755C49.325 54.4112 44.0524 57.0781 35.7895 57.0781C27.5268 57.0781 22.254 54.4098 22.254 52.5726C22.2491 50.7985 22.5966 49.041 23.2768 47.4018C23.957 45.7627 24.9563 44.2744 26.2166 43.0232C26.3593 42.8846 26.4727 42.719 26.5507 42.5361C26.6286 42.3533 26.6695 42.1569 26.6707 41.9582C26.672 41.7595 26.6336 41.5626 26.558 41.3787C26.4824 41.1949 26.3711 41.0279 26.2302 40.8874C26.0894 40.7469 25.9221 40.6357 25.738 40.5602C25.5537 40.4848 25.3564 40.4466 25.1572 40.4479C24.9581 40.4491 24.7612 40.4899 24.578 40.5677C24.3948 40.6453 24.2289 40.7587 24.0899 40.901C22.549 42.4306 21.3275 44.25 20.4961 46.254C19.6646 48.2581 19.2398 50.4066 19.2462 52.5755C19.2462 57.4496 27.769 60.0797 35.7895 60.0797C43.8101 60.0797 52.3329 57.4496 52.3329 52.5755C52.3396 50.392 51.909 48.2292 51.0663 46.214C50.2237 44.1989 48.986 42.3721 47.426 40.8409Z" fill="white"/>
<path d="M35.7874 42.0721C37.8696 42.0721 39.9049 41.4559 41.6363 40.3015C43.3675 39.1472 44.7168 37.5064 45.5136 35.5867C46.3105 33.6671 46.5189 31.5547 46.1127 29.5167C45.7065 27.4789 44.7039 25.6069 43.2316 24.1376C41.7592 22.6683 39.8833 21.6677 37.8413 21.2624C35.7991 20.8571 33.6823 21.0651 31.7586 21.8603C29.835 22.6554 28.1908 24.0019 27.0341 25.7297C25.8772 27.4573 25.2598 29.4885 25.2598 31.5663C25.263 34.3516 26.3733 37.0219 28.3468 38.9915C30.3205 40.961 32.9963 42.0689 35.7874 42.0721ZM35.7874 24.0622C37.2747 24.0622 38.7285 24.5023 39.9651 25.3268C41.2018 26.1514 42.1656 27.3234 42.7347 28.6946C43.3038 30.0659 43.4528 31.5746 43.1627 33.0303C42.8725 34.4859 42.1563 35.8231 41.1046 36.8725C40.053 37.922 38.7131 38.6367 37.2545 38.9263C35.7957 39.2158 34.2837 39.0671 32.9098 38.4992C31.5357 37.9313 30.3612 36.9695 29.535 35.7354C28.7087 34.5013 28.2678 33.0505 28.2678 31.5663C28.27 29.5768 29.0631 27.6695 30.4728 26.2627C31.8825 24.8559 33.7938 24.0645 35.7874 24.0622Z" fill="white"/>
<defs>
<linearGradient id="paint0_linear_493_3679" x1="-3.06975" y1="79.9261" x2="71.4111" y2="79.9261" gradientUnits="userSpaceOnUse">
<stop stop-color="#E1E4EA"/>
<stop offset="1" stop-color="#B2BAC3"/>
</linearGradient>
</defs>
</svg>
