<svg width="14" height="14" viewBox="0 0 14 14" fill="none" xmlns="http://www.w3.org/2000/svg">
<g clip-path="url(#clip0_407_1779)">
<path d="M6.12467 11.6668C6.12467 11.8989 6.21686 12.1215 6.38096 12.2855C6.54505 12.4496 6.76761 12.5418 6.99967 12.5418C7.23174 12.5418 7.4543 12.4496 7.61839 12.2855C7.78249 12.1215 7.87467 11.8989 7.87467 11.6668V7.87516H11.6663C11.8984 7.87516 12.121 7.78298 12.2851 7.61888C12.4492 7.45479 12.5413 7.23223 12.5413 7.00016C12.5413 6.7681 12.4492 6.54554 12.2851 6.38144C12.121 6.21735 11.8984 6.12516 11.6663 6.12516H7.87467V2.3335C7.87467 2.10143 7.78249 1.87887 7.61839 1.71478C7.4543 1.55068 7.23174 1.4585 6.99967 1.4585C6.76761 1.4585 6.54505 1.55068 6.38096 1.71478C6.21686 1.87887 6.12467 2.10143 6.12467 2.3335V6.12516H2.33301C2.10094 6.12516 1.87838 6.21735 1.71429 6.38144C1.5502 6.54554 1.45801 6.7681 1.45801 7.00016C1.45801 7.23223 1.5502 7.45479 1.71429 7.61888C1.87838 7.78298 2.10094 7.87516 2.33301 7.87516H6.12467V11.6668Z" fill="#4234A2"/>
</g>
<defs>
<clipPath id="clip0_407_1779">
<rect width="14" height="14" fill="white"/>
</clipPath>
</defs>
</svg>
