<svg width="18" height="18" viewBox="0 0 18 18" fill="none" xmlns="http://www.w3.org/2000/svg">
<path d="M13.8602 8.99988C13.2309 8.47243 12.431 8.19246 11.6102 8.21238H6.33394C6.09337 8.21846 5.85405 8.17593 5.6303 8.08734C5.40656 7.99875 5.20299 7.86593 5.03178 7.69682C4.86057 7.52772 4.72525 7.3258 4.63391 7.10317C4.54256 6.88053 4.49708 6.64176 4.50019 6.40113C4.49432 6.30747 4.49432 6.21354 4.50019 6.11988C4.57112 5.68991 4.79658 5.30063 5.13423 5.02513C5.47187 4.74963 5.89848 4.60686 6.33394 4.62363H11.5314C11.9554 4.62326 12.3657 4.77349 12.6892 5.04753C13.0127 5.32158 13.2284 5.70162 13.2977 6.11988H14.9852C14.9145 5.25243 14.5201 4.44334 13.8801 3.85345C13.2402 3.26356 12.4018 2.93609 11.5314 2.93613H9.75394V0.348633H8.34769V2.93613H6.33394C5.46362 2.93609 4.62515 3.26356 3.98524 3.85345C3.34532 4.44334 2.95083 5.25243 2.88019 6.11988C2.87457 6.21355 2.87457 6.30747 2.88019 6.40113C2.88019 6.85469 2.96952 7.3038 3.14309 7.72283C3.31665 8.14185 3.57106 8.52259 3.89177 8.8433C4.53947 9.49101 5.41794 9.85488 6.33394 9.85488H11.6664C11.9051 9.84888 12.1425 9.89071 12.3648 9.97791C12.587 10.0651 12.7896 10.1959 12.9605 10.3626C13.1314 10.5293 13.2672 10.7285 13.3599 10.9486C13.4525 11.1686 13.5003 11.4049 13.5002 11.6436C13.5119 11.7709 13.5119 11.8989 13.5002 12.0261C13.4109 12.422 13.1896 12.7757 12.8727 13.0292C12.5559 13.2827 12.1622 13.4209 11.7564 13.4211H6.46894C6.06315 13.4209 5.6695 13.2827 5.35264 13.0292C5.03577 12.7757 4.81451 12.422 4.72519 12.0261H3.02644C3.12312 12.8714 3.5274 13.6516 4.16225 14.218C4.79711 14.7843 5.61815 15.0974 6.46894 15.0974H8.34769V17.6511H9.75394V15.0974H11.6664C12.5172 15.0974 13.3383 14.7843 13.9731 14.218C14.608 13.6516 15.0123 12.8714 15.1089 12.0261V11.6436C15.1076 11.1383 14.995 10.6395 14.7792 10.1826C14.5634 9.72569 14.2496 9.32189 13.8602 8.99988Z" fill="black" fill-opacity="0.5"/>
</svg>
