<svg width="22" height="22" viewBox="0 0 22 22" fill="none" xmlns="http://www.w3.org/2000/svg">
<path d="M16.94 10.9995C16.1709 10.3549 15.1932 10.0127 14.19 10.037H7.74123C7.4472 10.0445 7.1547 9.99247 6.88123 9.8842C6.60777 9.77593 6.35896 9.61359 6.1497 9.4069C5.94045 9.20022 5.77505 8.95343 5.66341 8.68132C5.55177 8.40921 5.49618 8.11738 5.49998 7.82328C5.49281 7.70881 5.49281 7.594 5.49998 7.47953C5.58668 6.95401 5.86224 6.47822 6.27492 6.1415C6.68759 5.80477 7.209 5.63028 7.74123 5.65078H14.0937C14.6119 5.65032 15.1134 5.83394 15.5088 6.16888C15.9042 6.50383 16.1677 6.96832 16.2525 7.47953H18.315C18.2286 6.41932 17.7465 5.43042 16.9644 4.70944C16.1822 3.98847 15.1575 3.58822 14.0937 3.58828H11.9212V0.425781H10.2025V3.58828H7.74123C6.6775 3.58822 5.65271 3.98847 4.87059 4.70944C4.08848 5.43042 3.60632 6.41932 3.51998 7.47953C3.51312 7.59401 3.51312 7.7088 3.51998 7.82328C3.51998 8.37762 3.62916 8.92654 3.8413 9.43868C4.05344 9.95083 4.36437 10.4162 4.75635 10.8082C5.54799 11.5998 6.62168 12.0445 7.74123 12.0445H14.2587C14.5504 12.0372 14.8406 12.0883 15.1123 12.1949C15.3839 12.3015 15.6314 12.4613 15.8403 12.6651C16.0492 12.8688 16.2152 13.1123 16.3285 13.3812C16.4417 13.6501 16.5001 13.939 16.5 14.2308C16.5142 14.3863 16.5142 14.5428 16.5 14.6983C16.3908 15.1821 16.1204 15.6144 15.7331 15.9242C15.3458 16.234 14.8647 16.403 14.3687 16.4033H7.90623C7.41026 16.403 6.92914 16.234 6.54186 15.9242C6.15458 15.6144 5.88415 15.1821 5.77498 14.6983H3.69873C3.81689 15.7314 4.31102 16.6849 5.08695 17.3772C5.86288 18.0694 6.86638 18.452 7.90623 18.452H10.2025V21.5733H11.9212V18.452H14.2587C15.2986 18.452 16.3021 18.0694 17.078 17.3772C17.8539 16.6849 18.3481 15.7314 18.4662 14.6983V14.2308C18.4646 13.6132 18.327 13.0035 18.0632 12.4451C17.7994 11.8866 17.4159 11.3931 16.94 10.9995Z" fill="black" fill-opacity="0.5"/>
</svg>
