<svg width="13" height="14" viewBox="0 0 13 14" fill="none" xmlns="http://www.w3.org/2000/svg">
<path d="M4.46253 0.117188C4.06521 0.117188 3.67674 0.280276 3.39504 0.561975L1.34605 2.62585C1.06435 2.91051 0.910156 3.28411 0.910156 3.68441V4.9684V5.33905V5.70971V12.4912C0.910156 12.5623 0.916087 12.6335 0.924983 12.7017C1.0258 13.4312 1.65446 13.9946 2.41354 13.9946H10.8289C11.6562 13.9946 12.3323 13.3215 12.3323 12.4912V1.61763C12.3323 0.891147 11.8163 0.286207 11.1314 0.14684C11.0335 0.126083 10.9327 0.117188 10.8319 0.117188H9.20396H8.83331H8.46265H4.46253ZM9.20396 1.59981H10.8289C10.8408 1.59981 10.8497 1.60874 10.8497 1.6206V12.4941C10.8497 12.4971 10.8497 12.4971 10.8497 12.5001C10.8467 12.509 10.8408 12.5149 10.8319 12.5149C10.8319 12.5149 10.8319 12.5149 10.8289 12.5149H2.41354C2.40168 12.5149 2.39278 12.506 2.39278 12.4941V5.70968V5.33902V4.96837V3.98983H3.48103C4.16007 3.98983 4.71161 3.43824 4.71161 2.75926V1.59981H8.46265H8.83331H9.20396Z" fill="white"/>
</svg>
