<svg width="32" height="32" viewBox="0 0 32 32" fill="none" xmlns="http://www.w3.org/2000/svg">
<g opacity="0.8">
<path d="M14.3311 30.0007H17.6911C18.9711 30.0007 19.7978 29.0941 19.5578 27.9874L19.0111 25.5742H13.0111L12.4645 27.9874C12.2245 29.0274 13.1311 30.0007 14.3311 30.0007Z" stroke="white" stroke-width="2" stroke-linecap="round" stroke-linejoin="round"/>
<path d="M19.0133 25.5602L21.3201 23.5067C22.6135 22.3601 22.6667 21.5601 21.64 20.2667L17.5733 15.1069C16.72 14.0269 15.3201 14.0269 14.4668 15.1069L10.4001 20.2667C9.37341 21.5601 9.3734 22.4001 10.7201 23.5067L13.0267 25.5602" stroke="white" stroke-width="2" stroke-linecap="round" stroke-linejoin="round"/>
<path d="M16.0117 14.8262V18.1995" stroke="white" stroke-width="2" stroke-linecap="round" stroke-linejoin="round"/>
</g>
<path d="M16.6921 6.66699H15.3587C14.6254 6.66699 14.0254 6.06699 14.0254 5.33366V4.00033C14.0254 3.26699 14.6254 2.66699 15.3587 2.66699H16.6921C17.4254 2.66699 18.0254 3.26699 18.0254 4.00033V5.33366C18.0254 6.06699 17.4254 6.66699 16.6921 6.66699Z" stroke="white" stroke-width="2" stroke-linecap="round" stroke-linejoin="round"/>
<path d="M4.35872 18.8937H5.69206C6.42539 18.8937 7.02539 18.2937 7.02539 17.5604V16.227C7.02539 15.4937 6.42539 14.8936 5.69206 14.8936H4.35872C3.62539 14.8936 3.02539 15.4937 3.02539 16.227V17.5604C3.02539 18.2937 3.62539 18.8937 4.35872 18.8937Z" stroke="white" stroke-width="2" stroke-linecap="round" stroke-linejoin="round"/>
<path d="M27.6413 18.8937H26.3079C25.5746 18.8937 24.9746 18.2937 24.9746 17.5604V16.227C24.9746 15.4937 25.5746 14.8936 26.3079 14.8936H27.6413C28.3746 14.8936 28.9746 15.4937 28.9746 16.227V17.5604C28.9746 18.2937 28.3746 18.8937 27.6413 18.8937Z" stroke="white" stroke-width="2" stroke-linecap="round" stroke-linejoin="round"/>
<path d="M14.0267 4.74609C8.94667 5.34609 5 9.65273 5 14.8927" stroke="white" stroke-width="2" stroke-linecap="round" stroke-linejoin="round"/>
<path d="M26.9987 14.8927C26.9987 9.66607 23.0787 5.37276 18.0254 4.74609" stroke="white" stroke-width="2" stroke-linecap="round" stroke-linejoin="round"/>
</svg>
