<svg width="18" height="18" viewBox="0 0 18 18" fill="none" xmlns="http://www.w3.org/2000/svg">
<path fill-rule="evenodd" clip-rule="evenodd" d="M12.9562 4.90458C13.5783 5.51752 14.0538 6.26313 14.3473 7.08568C14.6407 7.90824 14.7445 8.78647 14.6509 9.65478C14.6422 9.77141 14.6792 9.88686 14.7541 9.97665C14.8291 10.0664 14.936 10.1235 15.0524 10.1358C15.1687 10.1481 15.2852 10.1146 15.3772 10.0425C15.4693 9.97032 15.5296 9.86516 15.5455 9.74928C15.6535 8.7464 15.5335 7.73208 15.1946 6.78206C14.8556 5.83204 14.3064 4.97088 13.588 4.26288C10.9447 1.65558 6.68048 1.69788 4.06418 4.35108C1.44788 7.00338 1.46498 11.2676 4.10918 13.8749C5.3331 15.084 6.97622 15.7746 8.69648 15.8027C9.34686 15.8143 9.99552 15.7321 10.6225 15.5588C10.7375 15.527 10.8353 15.4509 10.8942 15.3471C10.9531 15.2433 10.9683 15.1203 10.9366 15.0053C10.9048 14.8902 10.8287 14.7925 10.7249 14.7336C10.6211 14.6747 10.4981 14.6594 10.3831 14.6912C9.83933 14.8416 9.27675 14.9128 8.71268 14.9027C7.22326 14.8789 5.80049 14.2812 4.74098 13.2341C2.45407 10.9787 2.43517 7.28508 4.70498 4.98288C6.97478 2.68068 10.6693 2.64918 12.9562 4.90458Z" fill="black"/>
<path fill-rule="evenodd" clip-rule="evenodd" d="M14.7655 10.2259C14.8048 10.27 14.8525 10.3059 14.9057 10.3316C14.959 10.3572 15.0167 10.3722 15.0757 10.3755C15.1347 10.3788 15.1938 10.3705 15.2496 10.351C15.3054 10.3316 15.3568 10.3013 15.4009 10.2619L16.9489 8.88491C16.9965 8.84671 17.0358 8.79923 17.0645 8.74535C17.0931 8.69148 17.1105 8.63234 17.1156 8.57153C17.1207 8.51072 17.1134 8.44951 17.0941 8.39163C17.0748 8.33374 17.0439 8.28038 17.0033 8.2348C16.9628 8.18922 16.9133 8.15236 16.8581 8.12648C16.8028 8.10059 16.7429 8.08622 16.6819 8.08422C16.6209 8.08223 16.5601 8.09267 16.5033 8.11489C16.4465 8.13712 16.3947 8.17067 16.3513 8.2135L14.8033 9.5905C14.7591 9.62974 14.723 9.6773 14.6972 9.73046C14.6714 9.78363 14.6563 9.84137 14.6528 9.90037C14.6492 9.95938 14.6574 10.0185 14.6767 10.0744C14.6961 10.1302 14.7262 10.1817 14.7655 10.2259Z" fill="black"/>
<path fill-rule="evenodd" clip-rule="evenodd" d="M15.4618 10.1696C15.4263 10.2169 15.3819 10.2567 15.331 10.2868C15.2802 10.3169 15.2239 10.3367 15.1654 10.3451C15.1069 10.3534 15.0473 10.3502 14.9901 10.3355C14.9328 10.3209 14.879 10.2951 14.8318 10.2596L13.0318 8.90961C12.9363 8.838 12.8732 8.7314 12.8563 8.61325C12.8394 8.4951 12.8701 8.37509 12.9418 8.27961C13.0134 8.18413 13.12 8.12101 13.2381 8.10413C13.3563 8.08725 13.4763 8.118 13.5718 8.18961L15.3718 9.53961C15.4672 9.61122 15.5304 9.71782 15.5472 9.83597C15.5641 9.95412 15.5334 10.0741 15.4618 10.1696ZM8.99976 5.84961C8.88041 5.84961 8.76595 5.89702 8.68156 5.98141C8.59717 6.0658 8.54976 6.18026 8.54976 6.29961V9.44961C8.54976 9.56896 8.59717 9.68342 8.68156 9.76781C8.76595 9.8522 8.88041 9.89961 8.99976 9.89961C9.1191 9.89961 9.23356 9.8522 9.31795 9.76781C9.40235 9.68342 9.44976 9.56896 9.44976 9.44961V6.29961C9.44976 6.18026 9.40235 6.0658 9.31795 5.98141C9.23356 5.89702 9.1191 5.84961 8.99976 5.84961Z" fill="black"/>
<path fill-rule="evenodd" clip-rule="evenodd" d="M5.8502 9.45C5.8502 9.56935 5.89761 9.68381 5.982 9.7682C6.06639 9.85259 6.18085 9.9 6.3002 9.9H9.0002C9.11954 9.9 9.234 9.85259 9.31839 9.7682C9.40279 9.68381 9.4502 9.56935 9.4502 9.45C9.4502 9.33065 9.40279 9.21619 9.31839 9.1318C9.234 9.04741 9.11954 9 9.0002 9H6.3002C6.18085 9 6.06639 9.04741 5.982 9.1318C5.89761 9.21619 5.8502 9.33065 5.8502 9.45Z" fill="black"/>
</svg>
