<svg width="16" height="16" viewBox="0 0 16 16" fill="none" xmlns="http://www.w3.org/2000/svg">
<path d="M14.3245 13.3128C13.3363 11.6053 11.7851 10.4072 9.98259 9.89907C10.8589 9.4536 11.5597 8.72596 11.9719 7.83349C12.3841 6.94102 12.4837 5.93573 12.2547 4.97972C12.0257 4.02371 11.4813 3.1727 10.7094 2.56391C9.93757 1.95511 8.98316 1.62402 8.00009 1.62402C7.01703 1.62402 6.06261 1.95511 5.29074 2.56391C4.51887 3.1727 3.97453 4.02371 3.74549 4.97972C3.51645 5.93573 3.61607 6.94102 4.02828 7.83349C4.44048 8.72596 5.14125 9.4536 6.01759 9.89907C4.21509 10.4066 2.66384 11.6047 1.67572 13.3128C1.64859 13.3555 1.63037 13.4032 1.62216 13.4531C1.61395 13.503 1.61592 13.5541 1.62795 13.6032C1.63999 13.6523 1.66183 13.6985 1.69218 13.739C1.72252 13.7794 1.76073 13.8133 1.80452 13.8387C1.84831 13.864 1.89676 13.8802 1.94697 13.8863C1.99718 13.8924 2.0481 13.8882 2.09667 13.8741C2.14524 13.8601 2.19046 13.8363 2.22961 13.8043C2.26876 13.7722 2.30103 13.7326 2.32447 13.6878C3.52509 11.6134 5.64634 10.3753 8.00009 10.3753C10.3538 10.3753 12.4751 11.6134 13.6757 13.6878C13.6992 13.7326 13.7314 13.7722 13.7706 13.8043C13.8097 13.8363 13.8549 13.8601 13.9035 13.8741C13.9521 13.8882 14.003 13.8924 14.0532 13.8863C14.1034 13.8802 14.1519 13.864 14.1957 13.8387C14.2395 13.8133 14.2777 13.7794 14.308 13.739C14.3384 13.6985 14.3602 13.6523 14.3722 13.6032C14.3843 13.5541 14.3862 13.503 14.378 13.4531C14.3698 13.4032 14.3516 13.3555 14.3245 13.3128ZM4.37509 6.00031C4.37509 5.28336 4.5877 4.5825 4.98602 3.98637C5.38434 3.39024 5.95048 2.92562 6.61287 2.65125C7.27525 2.37688 8.00411 2.3051 8.7073 2.44497C9.41048 2.58484 10.0564 2.93009 10.5634 3.43705C11.0703 3.94402 11.4156 4.58993 11.5554 5.29311C11.6953 5.99629 11.6235 6.72516 11.3492 7.38754C11.0748 8.04992 10.6102 8.61607 10.014 9.01439C9.41791 9.41271 8.71705 9.62531 8.00009 9.62531C7.03904 9.62416 6.11768 9.24187 5.43811 8.5623C4.75854 7.88273 4.37625 6.96137 4.37509 6.00031Z" fill="black" fill-opacity="0.5"/>
</svg>
