<svg width="24" height="24" viewBox="0 0 24 24" fill="none" xmlns="http://www.w3.org/2000/svg">
<g clip-path="url(#clip0_476_626)">
<path d="M8.7788 7.64697L9.73993 9.17979L11.4947 9.62027L10.3339 11.0081L10.4573 12.8131L8.7788 12.1379L7.10021 12.8131L7.22359 11.0081L6.06287 9.62027L7.81768 9.17979L8.7788 7.64697Z" fill="white"/>
<path d="M7.10029 13.519C6.95338 13.519 6.80779 13.4732 6.6853 13.3842C6.48871 13.2413 6.3794 13.0074 6.39594 12.765L6.50001 11.2432L5.52135 10.0733C5.36549 9.88683 5.31641 9.63333 5.39146 9.40224C5.46655 9.17115 5.65522 8.9949 5.89096 8.93574L7.37043 8.56444L8.18071 7.2721C8.3098 7.06618 8.53579 6.94116 8.77879 6.94116C9.02179 6.94116 9.24777 7.06618 9.37687 7.2721L10.1871 8.56444L11.6665 8.93574C11.9022 8.9949 12.0909 9.17115 12.166 9.40224C12.2411 9.63333 12.192 9.88688 12.0361 10.0733L11.0575 11.2433L11.1615 12.7651C11.1781 13.0075 11.0689 13.2414 10.8722 13.3843C10.6755 13.5271 10.4193 13.5588 10.1939 13.4681L8.77874 12.8989L7.36354 13.4681C7.2786 13.5022 7.18921 13.519 7.10029 13.519ZM7.32651 10.0308L7.76507 10.5551C7.88188 10.6949 7.94019 10.8743 7.92787 11.0561L7.88127 11.7381L8.51544 11.483C8.68452 11.415 8.87319 11.415 9.04222 11.483L9.6763 11.738L9.62971 11.0561C9.61729 10.8743 9.6756 10.6949 9.79251 10.5551L10.2311 10.0308L9.56812 9.86447C9.39144 9.82013 9.23868 9.70918 9.14188 9.55482L8.77879 8.97572L8.41569 9.55482C8.3189 9.70918 8.16618 9.82008 7.98946 9.86447L7.32651 10.0308Z" fill="black"/>
<path d="M7.10029 13.519C6.95338 13.519 6.80779 13.4732 6.6853 13.3842C6.48871 13.2413 6.3794 13.0074 6.39594 12.765L6.50001 11.2432L5.52135 10.0733C5.36549 9.88683 5.31641 9.63333 5.39146 9.40224C5.46655 9.17115 5.65522 8.9949 5.89096 8.93574L7.37043 8.56444L8.18071 7.2721C8.3098 7.06618 8.53579 6.94116 8.77879 6.94116C9.02179 6.94116 9.24777 7.06618 9.37687 7.2721L10.1871 8.56444L11.6665 8.93574C11.9022 8.9949 12.0909 9.17115 12.166 9.40224C12.2411 9.63333 12.192 9.88688 12.0361 10.0733L11.0575 11.2433L11.1615 12.7651C11.1781 13.0075 11.0689 13.2414 10.8722 13.3843C10.6755 13.5271 10.4193 13.5588 10.1939 13.4681L8.77874 12.8989L7.36354 13.4681C7.2786 13.5022 7.18921 13.519 7.10029 13.519ZM7.32651 10.0308L7.76507 10.5551C7.88188 10.6949 7.94019 10.8743 7.92787 11.0561L7.88127 11.7381L8.51544 11.483C8.68452 11.415 8.87319 11.415 9.04222 11.483L9.6763 11.738L9.62971 11.0561C9.61729 10.8743 9.6756 10.6949 9.79251 10.5551L10.2311 10.0308L9.56812 9.86447C9.39144 9.82013 9.23868 9.70918 9.14188 9.55482L8.77879 8.97572L8.41569 9.55482C8.3189 9.70918 8.16618 9.82008 7.98946 9.86447L7.32651 10.0308Z" fill="#4234A2"/>
<path d="M17.937 9.70231H13.9135C13.5238 9.70231 13.2076 9.38628 13.2076 8.99642C13.2076 8.60656 13.5237 8.29053 13.9135 8.29053H17.937C18.3268 8.29053 18.6429 8.60656 18.6429 8.99642C18.6429 9.38628 18.3269 9.70231 17.937 9.70231Z" fill="black"/>
<path d="M17.937 9.70231H13.9135C13.5238 9.70231 13.2076 9.38628 13.2076 8.99642C13.2076 8.60656 13.5237 8.29053 13.9135 8.29053H17.937C18.3268 8.29053 18.6429 8.60656 18.6429 8.99642C18.6429 9.38628 18.3269 9.70231 17.937 9.70231Z" fill="#4234A2"/>
<path d="M16.5245 12.1696H13.9137C13.5239 12.1696 13.2078 11.8536 13.2078 11.4637C13.2078 11.0738 13.5238 10.7578 13.9137 10.7578H16.5245C16.9143 10.7578 17.2304 11.0738 17.2304 11.4637C17.2303 11.8536 16.9143 12.1696 16.5245 12.1696Z" fill="black"/>
<path d="M16.5245 12.1696H13.9137C13.5239 12.1696 13.2078 11.8536 13.2078 11.4637C13.2078 11.0738 13.5238 10.7578 13.9137 10.7578H16.5245C16.9143 10.7578 17.2304 11.0738 17.2304 11.4637C17.2303 11.8536 16.9143 12.1696 16.5245 12.1696Z" fill="#4234A2"/>
<path d="M8.7788 15.2759L9.73993 16.8087L11.4947 17.2491L10.3339 18.6369L10.4573 20.4419L8.7788 19.7667L7.10021 20.4419L7.22359 18.6369L6.06287 17.2491L7.81768 16.8087L8.7788 15.2759Z" fill="white"/>
<path d="M10.4573 21.148C10.3684 21.148 10.279 21.1312 10.194 21.097L8.77883 20.5278L7.36363 21.097C7.13826 21.1877 6.88194 21.156 6.68535 21.0132C6.48876 20.8703 6.3794 20.6364 6.39599 20.394L6.50005 18.8722L5.52135 17.7022C5.36549 17.5157 5.31641 17.2622 5.39146 17.0311C5.46655 16.8001 5.65522 16.6238 5.89096 16.5646L7.37043 16.1933L8.18071 14.901C8.3098 14.6951 8.53579 14.5701 8.77879 14.5701C9.02179 14.5701 9.24777 14.6951 9.37687 14.901L10.1871 16.1933L11.6665 16.5646C11.9022 16.6238 12.0909 16.8001 12.166 17.0311C12.2411 17.2622 12.192 17.5157 12.0361 17.7022L11.0575 18.8722L11.1615 20.394C11.1781 20.6364 11.0689 20.8703 10.8722 21.0132C10.7497 21.1022 10.6042 21.148 10.4573 21.148ZM7.32651 17.6599L7.76507 18.1841C7.88188 18.3239 7.94019 18.5034 7.92787 18.6852L7.88127 19.3671L8.51544 19.112C8.68452 19.0441 8.87319 19.0441 9.04222 19.112L9.6763 19.3671L9.62971 18.6852C9.61729 18.5034 9.6756 18.3239 9.79251 18.1841L10.2311 17.6599L9.56812 17.4935C9.39144 17.4492 9.23868 17.3382 9.14188 17.1839L8.77879 16.6048L8.41569 17.1839C8.3189 17.3382 8.16618 17.4491 7.98946 17.4935L7.32651 17.6599Z" fill="black"/>
<path d="M10.4573 21.148C10.3684 21.148 10.279 21.1312 10.194 21.097L8.77883 20.5278L7.36363 21.097C7.13826 21.1877 6.88194 21.156 6.68535 21.0132C6.48876 20.8703 6.3794 20.6364 6.39599 20.394L6.50005 18.8722L5.52135 17.7022C5.36549 17.5157 5.31641 17.2622 5.39146 17.0311C5.46655 16.8001 5.65522 16.6238 5.89096 16.5646L7.37043 16.1933L8.18071 14.901C8.3098 14.6951 8.53579 14.5701 8.77879 14.5701C9.02179 14.5701 9.24777 14.6951 9.37687 14.901L10.1871 16.1933L11.6665 16.5646C11.9022 16.6238 12.0909 16.8001 12.166 17.0311C12.2411 17.2622 12.192 17.5157 12.0361 17.7022L11.0575 18.8722L11.1615 20.394C11.1781 20.6364 11.0689 20.8703 10.8722 21.0132C10.7497 21.1022 10.6042 21.148 10.4573 21.148ZM7.32651 17.6599L7.76507 18.1841C7.88188 18.3239 7.94019 18.5034 7.92787 18.6852L7.88127 19.3671L8.51544 19.112C8.68452 19.0441 8.87319 19.0441 9.04222 19.112L9.6763 19.3671L9.62971 18.6852C9.61729 18.5034 9.6756 18.3239 9.79251 18.1841L10.2311 17.6599L9.56812 17.4935C9.39144 17.4492 9.23868 17.3382 9.14188 17.1839L8.77879 16.6048L8.41569 17.1839C8.3189 17.3382 8.16618 17.4491 7.98946 17.4935L7.32651 17.6599Z" fill="#4234A2"/>
<path d="M17.937 17.3312H13.9135C13.5238 17.3312 13.2076 17.0152 13.2076 16.6253C13.2076 16.2355 13.5237 15.9194 13.9135 15.9194H17.937C18.3268 15.9194 18.6429 16.2355 18.6429 16.6253C18.6429 17.0152 18.3269 17.3312 17.937 17.3312Z" fill="black"/>
<path d="M17.937 17.3312H13.9135C13.5238 17.3312 13.2076 17.0152 13.2076 16.6253C13.2076 16.2355 13.5237 15.9194 13.9135 15.9194H17.937C18.3268 15.9194 18.6429 16.2355 18.6429 16.6253C18.6429 17.0152 18.3269 17.3312 17.937 17.3312Z" fill="#4234A2"/>
<path d="M16.5245 19.7985H13.9137C13.5239 19.7985 13.2078 19.4825 13.2078 19.0926C13.2078 18.7027 13.5238 18.3867 13.9137 18.3867H16.5245C16.9143 18.3867 17.2304 18.7027 17.2304 19.0926C17.2303 19.4825 16.9143 19.7985 16.5245 19.7985Z" fill="black"/>
<path d="M16.5245 19.7985H13.9137C13.5239 19.7985 13.2078 19.4825 13.2078 19.0926C13.2078 18.7027 13.5238 18.3867 13.9137 18.3867H16.5245C16.9143 18.3867 17.2304 18.7027 17.2304 19.0926C17.2303 19.4825 16.9143 19.7985 16.5245 19.7985Z" fill="#4234A2"/>
<path d="M8.11746 2.68457H3.17627V4.94123H8.11746V2.68457Z" fill="white"/>
<path d="M20.8236 2.68457H15.8824V4.94123H20.8236V2.68457Z" fill="white"/>
<path d="M15.1765 4.94119C15.1765 5.33105 15.4925 5.64708 15.8824 5.64708H20.8237C21.2135 5.64708 21.5296 5.33105 21.5296 4.94119V2.68453C21.5296 2.29467 21.2135 1.97864 20.8237 1.97864H16.5882V0.705891C16.5882 0.316031 16.2721 0 15.8824 0H8.1176C7.72784 0 7.41171 0.316031 7.41171 0.705891V1.97869H3.17623C2.78646 1.97869 2.47034 2.29472 2.47034 2.68458V4.94123V23.2942C2.47034 23.684 2.78642 24 3.17623 24H20.8237C21.2135 24 21.5296 23.684 21.5296 23.2942V8.99639C21.5296 8.60653 21.2135 8.2905 20.8237 8.2905C20.4339 8.2905 20.1178 8.60653 20.1178 8.99639V22.5882H3.88212V5.64708H8.1176H13.0849C13.4747 5.64708 13.7908 5.33105 13.7908 4.94119C13.7908 4.55133 13.4747 4.2353 13.0849 4.2353H8.82349V2.68453V1.41178H15.1764V2.68453V4.94119H15.1765ZM3.88212 3.39042H7.41176V4.2353H3.88212V3.39042ZM20.1178 4.2353H16.5882V3.39042H20.1178V4.2353Z" fill="black"/>
<path d="M15.1765 4.94119C15.1765 5.33105 15.4925 5.64708 15.8824 5.64708H20.8237C21.2135 5.64708 21.5296 5.33105 21.5296 4.94119V2.68453C21.5296 2.29467 21.2135 1.97864 20.8237 1.97864H16.5882V0.705891C16.5882 0.316031 16.2721 0 15.8824 0H8.1176C7.72784 0 7.41171 0.316031 7.41171 0.705891V1.97869H3.17623C2.78646 1.97869 2.47034 2.29472 2.47034 2.68458V4.94123V23.2942C2.47034 23.684 2.78642 24 3.17623 24H20.8237C21.2135 24 21.5296 23.684 21.5296 23.2942V8.99639C21.5296 8.60653 21.2135 8.2905 20.8237 8.2905C20.4339 8.2905 20.1178 8.60653 20.1178 8.99639V22.5882H3.88212V5.64708H8.1176H13.0849C13.4747 5.64708 13.7908 5.33105 13.7908 4.94119C13.7908 4.55133 13.4747 4.2353 13.0849 4.2353H8.82349V2.68453V1.41178H15.1764V2.68453V4.94119H15.1765ZM3.88212 3.39042H7.41176V4.2353H3.88212V3.39042ZM20.1178 4.2353H16.5882V3.39042H20.1178V4.2353Z" fill="#4234A2"/>
</g>
<defs>
<clipPath id="clip0_476_626">
<rect width="24" height="24" fill="white"/>
</clipPath>
</defs>
</svg>
