<svg width="30" height="30" viewBox="0 0 30 30" fill="none" xmlns="http://www.w3.org/2000/svg">
<path d="M13.2208 10.8802C14.0124 9.46008 14.4083 8.75 15 8.75C15.5918 8.75 15.9876 9.46008 16.7793 10.8802L16.9841 11.2477C17.209 11.6512 17.3215 11.853 17.4969 11.9861C17.6723 12.1193 17.8908 12.1687 18.3276 12.2675L18.7253 12.3575C20.2626 12.7054 21.0313 12.8793 21.2141 13.4674C21.397 14.0554 20.873 14.6681 19.825 15.8938L19.5538 16.2108C19.256 16.559 19.1071 16.7331 19.0401 16.9486C18.9731 17.164 18.9956 17.3964 19.0406 17.861L19.0816 18.284C19.2401 19.9191 19.3193 20.7368 18.8405 21.1001C18.3618 21.4636 17.6421 21.1323 16.2028 20.4695L15.8304 20.298C15.4213 20.1097 15.2168 20.0155 15 20.0155C14.7833 20.0155 14.5788 20.1097 14.1696 20.298L13.7973 20.4695C12.3579 21.1323 11.6382 21.4636 11.1595 21.1001C10.6807 20.7368 10.7599 19.9191 10.9184 18.284L10.9594 17.861C11.0044 17.3964 11.0269 17.164 10.9599 16.9486C10.8929 16.7331 10.744 16.559 10.4462 16.2108L10.1751 15.8938C9.12703 14.6681 8.60301 14.0554 8.78589 13.4674C8.96876 12.8793 9.73741 12.7054 11.2747 12.3575L11.6724 12.2675C12.1093 12.1687 12.3277 12.1193 12.5031 11.9861C12.6785 11.853 12.791 11.6512 13.0159 11.2477L13.2208 10.8802Z" fill="#FFAC33"/>
<path opacity="0.8" fill-rule="evenodd" clip-rule="evenodd" d="M15 1.5625C15.5177 1.5625 15.9375 1.98224 15.9375 2.5V5C15.9375 5.51776 15.5177 5.9375 15 5.9375C14.4822 5.9375 14.0625 5.51776 14.0625 5V2.5C14.0625 1.98224 14.4822 1.5625 15 1.5625ZM1.5625 15C1.5625 14.4822 1.98224 14.0625 2.5 14.0625H5C5.51776 14.0625 5.9375 14.4822 5.9375 15C5.9375 15.5177 5.51776 15.9375 5 15.9375H2.5C1.98224 15.9375 1.5625 15.5177 1.5625 15ZM24.0625 15C24.0625 14.4822 24.4822 14.0625 25 14.0625H27.5C28.0177 14.0625 28.4375 14.4822 28.4375 15C28.4375 15.5177 28.0177 15.9375 27.5 15.9375H25C24.4822 15.9375 24.0625 15.5177 24.0625 15ZM15 24.0625C15.5177 24.0625 15.9375 24.4822 15.9375 25V27.5C15.9375 28.0177 15.5177 28.4375 15 28.4375C14.4822 28.4375 14.0625 28.0177 14.0625 27.5V25C14.0625 24.4822 14.4822 24.0625 15 24.0625Z" fill="#FFAC33"/>
<g opacity="0.5">
<path d="M23.163 6.83708C23.5291 7.2032 23.5291 7.7968 23.163 8.16291L22.734 8.59198C22.3679 8.9581 21.7743 8.9581 21.4081 8.59198C21.042 8.22587 21.042 7.63228 21.4081 7.26616L21.8373 6.83708C22.2034 6.47097 22.797 6.47097 23.163 6.83708Z" fill="#FFAC33"/>
<path d="M6.83708 6.83758C7.2032 6.47146 7.7968 6.47146 8.16291 6.83758L8.59198 7.26666C8.9581 7.63277 8.9581 8.22636 8.59198 8.59248C8.22587 8.95859 7.63228 8.95859 7.26616 8.59248L6.83708 8.16341C6.47097 7.79728 6.47097 7.20369 6.83708 6.83758Z" fill="#FFAC33"/>
<path d="M8.59184 21.4084C8.95796 21.7745 8.95796 22.3681 8.59184 22.7343L8.16303 23.163C7.79692 23.5291 7.20332 23.5291 6.83721 23.163C6.47109 22.797 6.47109 22.2034 6.83721 21.8373L7.26602 21.4084C7.63213 21.0423 8.22572 21.0423 8.59184 21.4084Z" fill="#FFAC33"/>
<path d="M21.4081 21.4084C21.7743 21.0423 22.3679 21.0423 22.734 21.4084L23.1628 21.8371C23.5289 22.2033 23.5289 22.7969 23.1628 23.163C22.7966 23.5291 22.203 23.5291 21.8369 23.163L21.4081 22.7341C21.042 22.368 21.042 21.7745 21.4081 21.4084Z" fill="#FFAC33"/>
</g>
</svg>
