<svg width="74" height="83" viewBox="0 0 74 83" fill="none" xmlns="http://www.w3.org/2000/svg">
<path d="M32.1085 1.38393C34.733 -0.275111 38.077 -0.275111 40.7015 1.38393L69.0604 19.3095C71.3944 20.785 72.81 23.3552 72.81 26.1183V57.3073C72.81 60.1811 71.2799 62.8366 68.7951 64.2767L40.4364 80.7083C37.9429 82.1535 34.8671 82.1535 32.3736 80.7083L4.01486 64.2767C1.53 62.8366 0 60.1811 0 57.3073V26.1183C0 23.3552 1.41543 20.785 3.74968 19.3095L32.1085 1.38393Z" fill="url(#paint0_linear_493_3694)"/>
<path d="M55.0961 39.2378C55.8563 38.4964 56.1246 37.4082 55.7967 36.3966C55.4681 35.385 54.6119 34.6629 53.5602 34.5097L44.2093 33.1499C43.8111 33.0918 43.467 32.8418 43.2892 32.4804L39.1086 24.0009C38.6392 23.0482 37.6865 22.4561 36.6247 22.4561C35.5637 22.4561 34.611 23.0482 34.1416 24.0009L29.9602 32.4812C29.7824 32.8427 29.4375 33.0926 29.0392 33.1507L19.6883 34.5105C18.6374 34.6629 17.7806 35.3858 17.452 36.3974C17.1241 37.409 17.3924 38.4971 18.1525 39.2387L24.9183 45.8389C25.2068 46.1206 25.339 46.5262 25.2709 46.9224L23.6748 56.2424C23.5332 57.0628 23.7482 57.8608 24.2787 58.4901C25.103 59.4706 26.5422 59.7694 27.6929 59.1641L36.0556 54.7634C36.4051 54.58 36.8451 54.5815 37.1939 54.7634L45.5573 59.1641C45.964 59.3785 46.3978 59.4868 46.8456 59.4868C47.663 59.4868 48.4378 59.1232 48.9707 58.4901C49.502 57.8608 49.7162 57.0613 49.5746 56.2424L47.9777 46.9224C47.9097 46.5254 48.0419 46.1206 48.3304 45.8389L55.0961 39.2378Z" fill="white"/>
<defs>
<linearGradient id="paint0_linear_493_3694" x1="25.2577" y1="7.9118" x2="49.6392" y2="86.1024" gradientUnits="userSpaceOnUse">
<stop stop-color="#FFD907"/>
<stop offset="1" stop-color="#FFAE00"/>
</linearGradient>
</defs>
</svg>
