<svg width="24" height="24" viewBox="0 0 24 24" fill="none" xmlns="http://www.w3.org/2000/svg">
<g clip-path="url(#clip0_449_3341)">
<path d="M18.99 7.02003C19.0444 7.16098 19.1401 7.28222 19.2645 7.36787C19.389 7.45352 19.5364 7.49958 19.6875 7.50003C19.78 7.49932 19.8715 7.48152 19.9575 7.44753C20.1421 7.37547 20.2907 7.23326 20.3708 7.05197C20.451 6.87068 20.456 6.66506 20.385 6.48003C20.038 5.59138 19.5519 4.76354 18.945 4.02753C18.8147 3.88815 18.6361 3.80369 18.4457 3.79136C18.2552 3.77904 18.0673 3.83976 17.92 3.96117C17.7728 4.08259 17.6774 4.25556 17.6532 4.44485C17.6291 4.63415 17.678 4.82553 17.79 4.98003C18.2954 5.59223 18.7005 6.2808 18.99 7.02003ZM16.5 3.75003C16.6989 3.75003 16.8897 3.67101 17.0303 3.53036C17.171 3.38971 17.25 3.19894 17.25 3.00003C17.2467 2.89918 17.2231 2.80005 17.1805 2.70855C17.138 2.61705 17.0775 2.53508 17.0025 2.46753C16.9386 2.39818 16.8608 2.343 16.7743 2.30554C16.6877 2.26808 16.5943 2.24917 16.5 2.25003C16.3011 2.25003 16.1103 2.32905 15.9697 2.4697C15.829 2.61035 15.75 2.80112 15.75 3.00003C15.7529 3.10826 15.7792 3.21458 15.8271 3.31168C15.875 3.40878 15.9434 3.49436 16.0275 3.56253C16.1584 3.67813 16.3255 3.74444 16.5 3.75003ZM6.75 9.75003C6.75 10.7884 7.05791 11.8034 7.63478 12.6668C8.21166 13.5301 9.0316 14.203 9.99091 14.6004C10.9502 14.9978 12.0058 15.1017 13.0242 14.8992C14.0426 14.6966 14.9781 14.1966 15.7123 13.4623C16.4465 12.7281 16.9466 11.7927 17.1491 10.7743C17.3517 9.75585 17.2477 8.70025 16.8504 7.74094C16.453 6.78163 15.7801 5.96169 14.9167 5.38481C14.0534 4.80794 13.0384 4.50003 12 4.50003C10.6076 4.50003 9.27226 5.05315 8.28769 6.03772C7.30312 7.02228 6.75 8.35764 6.75 9.75003ZM15.75 9.75003C15.75 10.4917 15.5301 11.2167 15.118 11.8334C14.706 12.4501 14.1203 12.9307 13.4351 13.2146C12.7498 13.4984 11.9958 13.5727 11.2684 13.428C10.541 13.2833 9.8728 12.9261 9.34835 12.4017C8.8239 11.8772 8.46675 11.209 8.32205 10.4816C8.17736 9.75419 8.25162 9.00019 8.53545 8.31496C8.81928 7.62974 9.29993 7.04407 9.91661 6.63202C10.5333 6.21996 11.2583 6.00003 12 6.00003C12.9946 6.00003 13.9484 6.39512 14.6517 7.09838C15.3549 7.80164 15.75 8.75547 15.75 9.75003Z" fill="black" fill-opacity="0.5"/>
<path d="M23.0325 19.7176L18.87 15.5551C20.2467 13.9343 21.0018 11.8766 21 9.75006C21 9.55114 20.921 9.36038 20.7803 9.21973C20.6397 9.07907 20.4489 9.00006 20.25 9.00006C20.0511 9.00006 19.8603 9.07907 19.7197 9.21973C19.579 9.36038 19.5 9.55114 19.5 9.75006C19.4991 10.9695 19.2008 12.1704 18.6309 13.2486C18.0611 14.3268 17.237 15.2498 16.23 15.9376L15.48 16.3876C14.4083 16.9524 13.2152 17.2477 12.0037 17.2477C10.7923 17.2477 9.59915 16.9524 8.5275 16.3876L7.7775 15.9376C6.31656 14.9311 5.25971 13.4393 4.79471 11.7272C4.32971 10.0152 4.48666 8.1937 5.23768 6.58642C5.9887 4.97915 7.28516 3.69013 8.89674 2.94839C10.5083 2.20664 12.3306 2.06019 14.04 2.53506C14.137 2.57028 14.2402 2.58512 14.3432 2.57863C14.4461 2.57215 14.5467 2.54449 14.6385 2.49739C14.7303 2.45028 14.8113 2.38474 14.8767 2.30487C14.942 2.22499 14.9901 2.1325 15.018 2.03317C15.046 1.93385 15.0531 1.82983 15.039 1.72762C15.0249 1.62541 14.9899 1.52721 14.9361 1.43916C14.8823 1.35111 14.8109 1.2751 14.7264 1.21589C14.6419 1.15668 14.5461 1.11555 14.445 1.09506C12.5931 0.578541 10.6246 0.6686 8.82761 1.35204C7.03066 2.03548 5.49978 3.27639 4.45922 4.89298C3.41867 6.50957 2.92312 8.41689 3.04518 10.3355C3.16723 12.2542 3.90048 14.0834 5.1375 15.5551L0.967498 19.7176C0.861726 19.8225 0.78959 19.9565 0.760288 20.1025C0.730986 20.2486 0.745845 20.4001 0.80297 20.5377C0.860095 20.6752 0.956898 20.7927 1.08104 20.8751C1.20518 20.9574 1.35103 21.0009 1.5 21.0001H3.96L4.5375 22.7401C4.57767 22.8618 4.64841 22.9713 4.74295 23.058C4.83749 23.1446 4.95268 23.2056 5.0775 23.2351L5.25 23.2501C5.3487 23.2506 5.44655 23.2317 5.53793 23.1944C5.62931 23.1571 5.71242 23.1021 5.7825 23.0326L10.2375 18.5776C11.4008 18.8117 12.5992 18.8117 13.7625 18.5776L18.2175 23.0326C18.2876 23.1021 18.3707 23.1571 18.4621 23.1944C18.5534 23.2317 18.6513 23.2506 18.75 23.2501H18.9225C19.0473 23.2206 19.1625 23.1596 19.257 23.073C19.3516 22.9863 19.4223 22.8769 19.4625 22.7551L20.04 21.0001H22.5C22.649 21.0009 22.7948 20.9574 22.919 20.8751C23.0431 20.7927 23.1399 20.6752 23.197 20.5377C23.2542 20.4001 23.269 20.2486 23.2397 20.1025C23.2104 19.9565 23.1383 19.8225 23.0325 19.7176ZM8.5425 18.1501L5.5425 21.1501L5.175 20.0551C5.13459 19.9036 5.04775 19.7686 4.92668 19.6691C4.80561 19.5695 4.65639 19.5104 4.5 19.5001H3.3075L6.1125 16.6951L6.945 17.1901C7.22037 17.3757 7.50581 17.546 7.8 17.7001L8.5425 18.1501ZM19.5 19.5001C19.3428 19.4996 19.1894 19.5487 19.0615 19.6402C18.9337 19.7317 18.8378 19.8611 18.7875 20.0101L18.42 21.1051L15.42 18.1051L16.17 17.6626C16.4642 17.5085 16.7496 17.3382 17.025 17.1526L17.8575 16.6576L20.6925 19.5001H19.5Z" fill="black" fill-opacity="0.5"/>
</g>
<defs>
<clipPath id="clip0_449_3341">
<rect width="24" height="24" fill="white"/>
</clipPath>
</defs>
</svg>
