<svg width="25" height="19" viewBox="0 0 25 19" fill="none" xmlns="http://www.w3.org/2000/svg">
<path d="M12.9911 18.1875V12.9911H16.4554L12.125 7.79464L7.79464 12.9911H11.2589V18.1875H6.92857V18.1442C6.78307 18.1529 6.6445 18.1875 6.49553 18.1875C4.77281 18.1875 3.12065 17.5032 1.9025 16.285C0.684349 15.0669 0 13.4147 0 11.692C0 8.35932 2.52027 5.64332 5.75418 5.27091C6.03771 3.7887 6.82888 2.45162 7.9916 1.48964C9.15432 0.527662 10.6159 0.000914595 12.125 0C13.6343 0.000844703 15.0961 0.527529 16.2591 1.48949C17.4221 2.45144 18.2137 3.78856 18.4976 5.27091C21.7315 5.64332 24.2483 8.35932 24.2483 11.692C24.2483 13.4147 23.5639 15.0669 22.3458 16.285C21.1276 17.5032 19.4755 18.1875 17.7527 18.1875C17.6072 18.1875 17.4669 18.1529 17.3197 18.1442V18.1875H12.9911Z" fill="black"/>
<path d="M12.9911 18.1875V12.9911H16.4554L12.125 7.79464L7.79464 12.9911H11.2589V18.1875H6.92857V18.1442C6.78307 18.1529 6.6445 18.1875 6.49553 18.1875C4.77281 18.1875 3.12065 17.5032 1.9025 16.285C0.684349 15.0669 0 13.4147 0 11.692C0 8.35932 2.52027 5.64332 5.75418 5.27091C6.03771 3.7887 6.82888 2.45162 7.9916 1.48964C9.15432 0.527662 10.6159 0.000914595 12.125 0C13.6343 0.000844703 15.0961 0.527529 16.2591 1.48949C17.4221 2.45144 18.2137 3.78856 18.4976 5.27091C21.7315 5.64332 24.2483 8.35932 24.2483 11.692C24.2483 13.4147 23.5639 15.0669 22.3458 16.285C21.1276 17.5032 19.4755 18.1875 17.7527 18.1875C17.6072 18.1875 17.4669 18.1529 17.3197 18.1442V18.1875H12.9911Z" fill="#5652B0"/>
<path d="M12.9911 18.1875V12.9911H16.4554L12.125 7.79464L7.79464 12.9911H11.2589V18.1875H6.92857V18.1442C6.78307 18.1529 6.6445 18.1875 6.49553 18.1875C4.77281 18.1875 3.12065 17.5032 1.9025 16.285C0.684349 15.0669 0 13.4147 0 11.692C0 8.35932 2.52027 5.64332 5.75418 5.27091C6.03771 3.7887 6.82888 2.45162 7.9916 1.48964C9.15432 0.527662 10.6159 0.000914595 12.125 0C13.6343 0.000844703 15.0961 0.527529 16.2591 1.48949C17.4221 2.45144 18.2137 3.78856 18.4976 5.27091C21.7315 5.64332 24.2483 8.35932 24.2483 11.692C24.2483 13.4147 23.5639 15.0669 22.3458 16.285C21.1276 17.5032 19.4755 18.1875 17.7527 18.1875C17.6072 18.1875 17.4669 18.1529 17.3197 18.1442V18.1875H12.9911Z" fill="url(#paint0_linear_407_4160)"/>
<defs>
<linearGradient id="paint0_linear_407_4160" x1="23.4048" y1="18.1875" x2="-2.57955" y2="13.0521" gradientUnits="userSpaceOnUse">
<stop stop-color="#0F87B3"/>
<stop offset="1" stop-color="#462DA1"/>
</linearGradient>
</defs>
</svg>
