<svg width="29" height="29" viewBox="0 0 29 29" fill="none" xmlns="http://www.w3.org/2000/svg">
<g clip-path="url(#clip0_489_2323)">
<path d="M21.0004 5.10997C20.9828 5.04842 20.9511 4.99582 20.9054 4.94482C20.8973 4.93561 20.8889 4.92656 20.88 4.91772L16.766 0.803713C16.7572 0.794874 16.7481 0.786464 16.7389 0.778376C16.6879 0.732629 16.6353 0.70097 16.5738 0.6834C16.5248 0.667919 16.4735 0.661919 16.4211 0.66658H1.36139C1.08712 0.66658 0.904297 0.849406 0.904297 1.12367V27.6361C0.904297 27.9104 1.08712 28.0932 1.36139 28.0932H20.5601C20.8343 28.0932 21.0172 27.9104 21.0172 27.6361V5.26275C21.0218 5.2103 21.0158 5.15899 21.0004 5.10997ZM19.463 4.78064H16.9032V2.22079L19.463 4.78064ZM1.81848 27.1791V1.58082H15.9889V5.23773C15.9889 5.512 16.1718 5.69483 16.446 5.69483H20.1029V27.1791H1.81848Z" fill="white"/>
<path d="M16.4454 12.5518H5.47467C5.2004 12.5518 5.01758 12.7346 5.01758 13.0089C5.01758 13.2831 5.2004 13.4659 5.47467 13.4659H16.4454C16.7196 13.4659 16.9024 13.2831 16.9024 13.0089C16.9024 12.7346 16.7196 12.5518 16.4454 12.5518Z" fill="white"/>
<path d="M14.6185 16.2081C14.8928 16.2081 15.0756 16.0253 15.0756 15.751C15.0756 15.4768 14.8928 15.2939 14.6185 15.2939H7.30475C7.03048 15.2939 6.84766 15.4768 6.84766 15.751C6.84766 16.0253 7.03048 16.2081 7.30475 16.2081H14.6185Z" fill="white"/>
<path d="M16.4454 18.0371H5.47467C5.2004 18.0371 5.01758 18.2199 5.01758 18.4942C5.01758 18.7685 5.2004 18.9513 5.47467 18.9513H16.4454C16.7196 18.9513 16.9024 18.7685 16.9024 18.4942C16.9024 18.22 16.7196 18.0371 16.4454 18.0371Z" fill="white"/>
<path d="M14.6185 20.7793H7.30475C7.03048 20.7793 6.84766 20.9621 6.84766 21.2364C6.84766 21.5107 7.03048 21.6935 7.30475 21.6935H14.6185C14.8928 21.6935 15.0756 21.5107 15.0756 21.2364C15.0756 20.9621 14.8928 20.7793 14.6185 20.7793Z" fill="white"/>
<path d="M7.30475 10.7228H14.6185C14.8928 10.7228 15.0756 10.54 15.0756 10.2657C15.0756 9.99142 14.8928 9.80859 14.6185 9.80859H7.30475C7.03048 9.80859 6.84766 9.99142 6.84766 10.2657C6.84766 10.54 7.03048 10.7228 7.30475 10.7228Z" fill="white"/>
<path d="M27.8739 2.95154V1.80878C27.8739 1.1688 27.3711 0.666016 26.7311 0.666016H26.274C25.6341 0.666016 25.1313 1.16886 25.1313 1.80878V2.95154C24.857 2.95154 24.6742 3.13436 24.6742 3.40863V3.56864L23.0743 4.36857C23.0373 4.38705 23.0043 4.41329 22.9756 4.44485C22.8931 4.52498 22.8457 4.64058 22.8457 4.77997V10.7224C22.8457 10.9967 23.0285 11.1795 23.3028 11.1795C23.5771 11.1795 23.7599 10.9967 23.7599 10.7224V5.00854L24.6741 4.55145V16.6649V23.9787C24.6741 24.1012 24.7108 24.2052 24.7756 24.2831L25.6341 26.8585C25.6798 27.0413 25.8626 27.1784 26.0455 27.1784V27.6355C26.0455 27.9098 26.2283 28.0926 26.5026 28.0926C26.7768 28.0926 26.9597 27.9098 26.9597 27.6355V27.1784C27.1425 27.1784 27.3254 27.0413 27.3711 26.8585L28.2295 24.2831C28.2943 24.2052 28.331 24.1012 28.331 23.9787V16.6649V3.40869C28.331 3.13442 28.1482 2.95154 27.8739 2.95154ZM25.5883 3.86578H27.4167V16.2078H25.5883V3.86578ZM27.4168 18.0362H25.5884V17.122H27.4168V18.0362ZM25.5883 19.8647V18.9505H27.4167V19.8647H25.5883ZM27.4168 20.7789V21.6931H25.5884V20.7789H27.4168ZM25.5883 23.5216V22.6073H27.4167V23.5216H25.5883ZM26.0455 1.80878C26.0455 1.67164 26.1369 1.5802 26.274 1.5802H26.7311C26.8683 1.5802 26.9597 1.67164 26.9597 1.80878V2.95154H26.0455V1.80878ZM26.6397 26.2642H26.3654L25.7712 24.4358H27.234L26.6397 26.2642Z" fill="white"/>
</g>
<defs>
<clipPath id="clip0_489_2323">
<rect width="27.4286" height="27.4286" fill="white" transform="translate(0.904297 0.666016)"/>
</clipPath>
</defs>
</svg>
