<svg width="34" height="34" viewBox="0 0 34 34" fill="none" xmlns="http://www.w3.org/2000/svg">
<path d="M4.25 19.8334V14.1667C4.25 8.82446 4.25 6.15262 5.91033 4.49371C7.56925 2.83337 10.2411 2.83337 15.5833 2.83337H18.4167C23.7589 2.83337 26.4307 2.83337 28.0897 4.49371C29.0162 5.41879 29.4256 6.65837 29.6055 8.50004M29.75 14.1667V19.8334C29.75 25.1756 29.75 27.8475 28.0897 29.5064C26.4307 31.1667 23.7589 31.1667 18.4167 31.1667H15.5833C10.2411 31.1667 7.56925 31.1667 5.91033 29.5064C4.98383 28.5813 4.57442 27.3417 4.3945 25.5M11.3333 19.8334H18.4167M11.3333 14.1667H12.75M22.6667 14.1667H17" stroke="#008A9D" stroke-width="1.5" stroke-linecap="round"/>
</svg>
