<svg width="30" height="30" viewBox="0 0 30 30" fill="none" xmlns="http://www.w3.org/2000/svg">
<path d="M0 15.0266C0 12.3091 0.679396 9.7913 2.02487 7.48668C3.37034 5.18206 5.19538 3.35702 7.5 2.01155C9.80462 0.666074 12.3091 0 15.0133 0C17.0382 0 18.9831 0.399645 20.8348 1.18561C22.6865 1.97158 24.2718 3.05062 25.6172 4.38277C26.9627 5.71492 28.0284 7.3135 28.8144 9.17851C29.6004 11.0435 30 12.9751 30 15.0266C30 17.0515 29.6004 18.9964 28.8144 20.8481C28.0284 22.6998 26.9494 24.2984 25.6172 25.6306C24.2851 26.9627 22.6865 28.0284 20.8348 28.8144C18.9831 29.6004 17.0515 30 15.0133 30C12.9751 30 11.0169 29.6004 9.16519 28.8144C7.3135 28.0284 5.71492 26.9494 4.36945 25.6172C3.02398 24.2851 1.97158 22.6865 1.17229 20.8481C0.373002 19.0098 0 17.0648 0 15.0266ZM3.30373 15.0266C3.30373 18.1838 4.44938 20.9281 6.754 23.2593C9.05861 25.5639 11.8028 26.7096 15.0133 26.7096C17.1181 26.7096 19.0764 26.1901 20.8615 25.1377C22.6465 24.0853 24.0853 22.6732 25.1377 20.8748C26.1901 19.0764 26.7229 17.1314 26.7229 15.0266C26.7229 12.9218 26.1901 10.9636 25.1377 9.16519C24.0853 7.36679 22.6599 5.94139 20.8615 4.88899C19.0631 3.83659 17.1181 3.31705 15.0133 3.31705C12.9085 3.31705 10.9503 3.83659 9.16519 4.88899C7.38011 5.94139 5.94139 7.36679 4.87567 9.16519C3.80995 10.9636 3.30373 12.9218 3.30373 15.0266ZM13.8544 15.0266V6.15453C13.8544 5.84813 13.9609 5.58171 14.1741 5.36856C14.3872 5.15542 14.6536 5.04885 14.96 5.04885C15.2664 5.04885 15.5329 5.15542 15.746 5.36856C15.9591 5.58171 16.0657 5.84813 16.0657 6.15453V13.095L19.7691 11.0036C20.0355 10.8437 20.3153 10.8037 20.6083 10.8837C20.9014 10.9636 21.1279 11.1501 21.2744 11.4298C21.4343 11.6963 21.4609 11.976 21.381 12.2691C21.3011 12.5622 21.1279 12.802 20.8615 12.9485L15.6927 15.8393C15.4909 16.0291 15.2238 16.134 14.9467 16.1323C14.8015 16.1347 14.6572 16.1077 14.5228 16.0528C14.3883 15.9979 14.2663 15.9163 14.1642 15.813C14.0621 15.7096 13.982 15.5867 13.9288 15.4515C13.8755 15.3164 13.8502 15.1718 13.8544 15.0266Z" fill="#4234A2"/>
</svg>
