<svg width="32" height="32" viewBox="0 0 32 32" fill="none" xmlns="http://www.w3.org/2000/svg">
<path d="M12.6465 20.5536L13.0001 20.9071L13.3536 20.5536L23.2536 10.6536L23.2536 10.6536L23.2557 10.6514C23.3008 10.6058 23.3544 10.5697 23.4135 10.545C23.4726 10.5203 23.536 10.5076 23.6001 10.5076C23.6641 10.5076 23.7275 10.5203 23.7866 10.545C23.8457 10.5697 23.8993 10.6058 23.9444 10.6514L23.9443 10.6514L23.9487 10.6557C23.9942 10.7007 24.0304 10.7543 24.0551 10.8134C24.0798 10.8725 24.0925 10.936 24.0925 11C24.0925 11.0641 24.0798 11.1275 24.0551 11.1866C24.0304 11.2457 23.9942 11.2993 23.9486 11.3443L23.9467 11.3463L13.3467 21.9363L13.3465 21.9365C13.1518 22.1312 12.8383 22.1312 12.6436 21.9365L8.45361 17.7465L8.45362 17.7464L8.45146 17.7443C8.40589 17.6993 8.36972 17.6457 8.34502 17.5866C8.32033 17.5275 8.30762 17.4641 8.30762 17.4C8.30762 17.336 8.32033 17.2725 8.34502 17.2134C8.36971 17.1543 8.40589 17.1007 8.45146 17.0557L8.45149 17.0557L8.45575 17.0514C8.50076 17.0058 8.55438 16.9697 8.61348 16.945C8.67259 16.9203 8.736 16.9076 8.80006 16.9076C8.86411 16.9076 8.92753 16.9203 8.98663 16.945C9.04573 16.9697 9.09935 17.0058 9.14437 17.0514L9.14436 17.0514L9.1465 17.0536L12.6465 20.5536Z" fill="#545454" stroke="#85F3B2"/>
<circle cx="16" cy="16" r="15.5" stroke="#85F3B2"/>
</svg>
