<svg width="32" height="32" viewBox="0 0 32 32" fill="none" xmlns="http://www.w3.org/2000/svg">
<circle cx="16" cy="16" r="15.5" stroke="#FE7878"/>
<path d="M21.9461 10.0632L21.9464 10.0636C22.1312 10.2483 22.1312 10.5717 21.9464 10.7564L17.0564 15.6464L16.7029 16L17.0564 16.3536L21.9464 21.2436C21.9926 21.2897 22.0292 21.3445 22.0542 21.4048C22.0791 21.4651 22.092 21.5297 22.092 21.595C22.092 21.6603 22.0791 21.7249 22.0542 21.7852C22.0292 21.8455 21.9926 21.9003 21.9464 21.9464C21.9003 21.9926 21.8455 22.0292 21.7852 22.0542C21.7249 22.0792 21.6602 22.092 21.595 22.092C21.5297 22.092 21.4651 22.0792 21.4048 22.0542C21.3445 22.0292 21.2897 21.9926 21.2435 21.9464L16.3535 17.0564L16 16.7029L15.6464 17.0564L10.7564 21.9464C10.7103 21.9926 10.6555 22.0292 10.5952 22.0542C10.5349 22.0792 10.4703 22.092 10.405 22.092C10.3397 22.092 10.2751 22.0792 10.2148 22.0542C10.1545 22.0292 10.0997 21.9926 10.0535 21.9464C10.0074 21.9003 9.97077 21.8455 9.94579 21.7852C9.92081 21.7249 9.90796 21.6603 9.90796 21.595C9.90796 21.5297 9.92081 21.4651 9.94579 21.4048C9.97077 21.3445 10.0074 21.2897 10.0535 21.2436L14.9435 16.3536L15.2971 16L14.9435 15.6464L10.0535 10.7564C10.0074 10.7103 9.97077 10.6555 9.94579 10.5952C9.92081 10.5349 9.90796 10.4703 9.90796 10.405C9.90796 10.3397 9.92081 10.2751 9.94579 10.2148C9.97077 10.1545 10.0074 10.0997 10.0535 10.0536C10.0997 10.0074 10.1545 9.97079 10.2148 9.94582C10.2751 9.92084 10.3397 9.90798 10.405 9.90798C10.4703 9.90798 10.5349 9.92084 10.5952 9.94582C10.6555 9.97079 10.7103 10.0074 10.7564 10.0536L15.6464 14.9436L15.9996 15.2967L16.3532 14.9439L21.2432 10.0639L21.2439 10.0632C21.29 10.017 21.3447 9.9804 21.4049 9.95541C21.4652 9.93042 21.5298 9.91756 21.595 9.91756C21.6602 9.91756 21.7248 9.93042 21.785 9.95541C21.8453 9.9804 21.9 10.017 21.9461 10.0632Z" fill="#545454"/>
<path d="M21.9461 10.0632L21.9464 10.0636C22.1312 10.2483 22.1312 10.5717 21.9464 10.7564L17.0564 15.6464L16.7029 16L17.0564 16.3536L21.9464 21.2436C21.9926 21.2897 22.0292 21.3445 22.0542 21.4048C22.0791 21.4651 22.092 21.5297 22.092 21.595C22.092 21.6603 22.0791 21.7249 22.0542 21.7852C22.0292 21.8455 21.9926 21.9003 21.9464 21.9464C21.9003 21.9926 21.8455 22.0292 21.7852 22.0542C21.7249 22.0792 21.6602 22.092 21.595 22.092C21.5297 22.092 21.4651 22.0792 21.4048 22.0542C21.3445 22.0292 21.2897 21.9926 21.2435 21.9464L16.3535 17.0564L16 16.7029L15.6464 17.0564L10.7564 21.9464C10.7103 21.9926 10.6555 22.0292 10.5952 22.0542C10.5349 22.0792 10.4703 22.092 10.405 22.092C10.3397 22.092 10.2751 22.0792 10.2148 22.0542C10.1545 22.0292 10.0997 21.9926 10.0535 21.9464C10.0074 21.9003 9.97077 21.8455 9.94579 21.7852C9.92081 21.7249 9.90796 21.6603 9.90796 21.595C9.90796 21.5297 9.92081 21.4651 9.94579 21.4048C9.97077 21.3445 10.0074 21.2897 10.0535 21.2436L14.9435 16.3536L15.2971 16L14.9435 15.6464L10.0535 10.7564C10.0074 10.7103 9.97077 10.6555 9.94579 10.5952C9.92081 10.5349 9.90796 10.4703 9.90796 10.405C9.90796 10.3397 9.92081 10.2751 9.94579 10.2148C9.97077 10.1545 10.0074 10.0997 10.0535 10.0536C10.0997 10.0074 10.1545 9.97079 10.2148 9.94582C10.2751 9.92084 10.3397 9.90798 10.405 9.90798C10.4703 9.90798 10.5349 9.92084 10.5952 9.94582C10.6555 9.97079 10.7103 10.0074 10.7564 10.0536L15.6464 14.9436L15.9996 15.2967L16.3532 14.9439L21.2432 10.0639L21.2439 10.0632C21.29 10.017 21.3447 9.9804 21.4049 9.95541C21.4652 9.93042 21.5298 9.91756 21.595 9.91756C21.6602 9.91756 21.7248 9.93042 21.785 9.95541C21.8453 9.9804 21.9 10.017 21.9461 10.0632Z" fill="#FFCECE"/>
<path d="M21.9461 10.0632L21.9464 10.0636C22.1312 10.2483 22.1312 10.5717 21.9464 10.7564L17.0564 15.6464L16.7029 16L17.0564 16.3536L21.9464 21.2436C21.9926 21.2897 22.0292 21.3445 22.0542 21.4048C22.0791 21.4651 22.092 21.5297 22.092 21.595C22.092 21.6603 22.0791 21.7249 22.0542 21.7852C22.0292 21.8455 21.9926 21.9003 21.9464 21.9464C21.9003 21.9926 21.8455 22.0292 21.7852 22.0542C21.7249 22.0792 21.6602 22.092 21.595 22.092C21.5297 22.092 21.4651 22.0792 21.4048 22.0542C21.3445 22.0292 21.2897 21.9926 21.2435 21.9464L16.3535 17.0564L16 16.7029L15.6464 17.0564L10.7564 21.9464C10.7103 21.9926 10.6555 22.0292 10.5952 22.0542C10.5349 22.0792 10.4703 22.092 10.405 22.092C10.3397 22.092 10.2751 22.0792 10.2148 22.0542C10.1545 22.0292 10.0997 21.9926 10.0535 21.9464C10.0074 21.9003 9.97077 21.8455 9.94579 21.7852C9.92081 21.7249 9.90796 21.6603 9.90796 21.595C9.90796 21.5297 9.92081 21.4651 9.94579 21.4048C9.97077 21.3445 10.0074 21.2897 10.0535 21.2436L14.9435 16.3536L15.2971 16L14.9435 15.6464L10.0535 10.7564C10.0074 10.7103 9.97077 10.6555 9.94579 10.5952C9.92081 10.5349 9.90796 10.4703 9.90796 10.405C9.90796 10.3397 9.92081 10.2751 9.94579 10.2148C9.97077 10.1545 10.0074 10.0997 10.0535 10.0536C10.0997 10.0074 10.1545 9.97079 10.2148 9.94582C10.2751 9.92084 10.3397 9.90798 10.405 9.90798C10.4703 9.90798 10.5349 9.92084 10.5952 9.94582C10.6555 9.97079 10.7103 10.0074 10.7564 10.0536L15.6464 14.9436L15.9996 15.2967L16.3532 14.9439L21.2432 10.0639L21.2439 10.0632C21.29 10.017 21.3447 9.9804 21.4049 9.95541C21.4652 9.93042 21.5298 9.91756 21.595 9.91756C21.6602 9.91756 21.7248 9.93042 21.785 9.95541C21.8453 9.9804 21.9 10.017 21.9461 10.0632Z" stroke="#FE7878"/>
</svg>
