<svg width="44" height="44" viewBox="0 0 44 44" fill="none" xmlns="http://www.w3.org/2000/svg">
<circle cx="22" cy="22" r="22" fill="#EFF8FA"/>
<path d="M12.9919 21.576C12.9919 19.944 13.3999 18.432 14.2079 17.048C15.0159 15.664 16.1119 14.568 17.4959 13.76C18.8799 12.952 20.3839 12.552 22.0079 12.552C23.2239 12.552 24.3919 12.792 25.5039 13.264C26.6159 13.736 27.5679 14.384 28.3759 15.184C29.1839 15.984 29.8239 16.944 30.2959 18.064C30.7679 19.184 31.0079 20.344 31.0079 21.576C31.0079 22.792 30.7679 23.96 30.2959 25.072C29.8239 26.184 29.1759 27.144 28.3759 27.944C27.5759 28.744 26.6159 29.384 25.5039 29.856C24.3919 30.328 23.2319 30.568 22.0079 30.568C20.7839 30.568 19.6079 30.328 18.4959 29.856C17.3839 29.384 16.4239 28.736 15.6159 27.936C14.8079 27.136 14.1759 26.176 13.6959 25.072C13.2159 23.968 12.9919 22.8 12.9919 21.576ZM14.9759 21.576C14.9759 23.472 15.6639 25.12 17.0479 26.52C18.4319 27.904 20.0799 28.592 22.0079 28.592C23.2719 28.592 24.4479 28.28 25.5199 27.648C26.5919 27.016 27.4559 26.168 28.0879 25.088C28.7199 24.008 29.0399 22.84 29.0399 21.576C29.0399 20.312 28.7199 19.136 28.0879 18.056C27.4559 16.976 26.5999 16.12 25.5199 15.488C24.4399 14.856 23.2719 14.544 22.0079 14.544C20.7439 14.544 19.5679 14.856 18.4959 15.488C17.4239 16.12 16.5599 16.976 15.9199 18.056C15.2799 19.136 14.9759 20.312 14.9759 21.576ZM21.3119 21.576V16.248C21.3119 16.064 21.3759 15.904 21.5039 15.776C21.6319 15.648 21.7919 15.584 21.9759 15.584C22.1599 15.584 22.3199 15.648 22.4479 15.776C22.5759 15.904 22.6399 16.064 22.6399 16.248V20.416L24.8639 19.16C25.0239 19.064 25.1919 19.04 25.3679 19.088C25.5439 19.136 25.6799 19.248 25.7679 19.416C25.8639 19.576 25.8799 19.744 25.8319 19.92C25.7839 20.096 25.6799 20.24 25.5199 20.328L22.4159 22.064C22.2947 22.178 22.1343 22.241 21.9679 22.24C21.8807 22.2414 21.7941 22.2252 21.7133 22.1922C21.6326 22.1593 21.5593 22.1103 21.498 22.0482C21.4367 21.9862 21.3886 21.9123 21.3566 21.8312C21.3246 21.75 21.3094 21.6632 21.3119 21.576Z" fill="#545454"/>
</svg>
