<svg width="34" height="34" viewBox="0 0 34 34" fill="none" xmlns="http://www.w3.org/2000/svg">
<path d="M18.0625 23.375V14.875H13.8125V17H15.9375V23.375H12.75V25.5H21.25V23.375H18.0625ZM17 8.5C16.6848 8.5 16.3767 8.59347 16.1146 8.76859C15.8525 8.94372 15.6482 9.19263 15.5276 9.48385C15.4069 9.77507 15.3754 10.0955 15.4369 10.4047C15.4984 10.7138 15.6502 10.9978 15.873 11.2207C16.0959 11.4436 16.3799 11.5954 16.6891 11.6569C16.9982 11.7184 17.3187 11.6868 17.6099 11.5662C17.9011 11.4456 18.15 11.2413 18.3252 10.9792C18.5003 10.7171 18.5938 10.409 18.5938 10.0938C18.5938 9.67106 18.4258 9.26568 18.127 8.9668C17.8281 8.66791 17.4227 8.5 17 8.5Z" fill="#FD787F"/>
<path d="M17 31.875C14.058 31.875 11.1821 31.0026 8.7359 29.3681C6.28972 27.7336 4.38315 25.4105 3.2573 22.6924C2.13145 19.9744 1.83687 16.9835 2.41083 14.098C2.98478 11.2126 4.40149 8.5621 6.48179 6.48179C8.5621 4.40149 11.2126 2.98478 14.098 2.41083C16.9835 1.83687 19.9744 2.13145 22.6924 3.2573C25.4105 4.38315 27.7336 6.28972 29.3681 8.7359C31.0026 11.1821 31.875 14.058 31.875 17C31.875 20.9451 30.3078 24.7286 27.5182 27.5182C24.7286 30.3078 20.9451 31.875 17 31.875ZM17 4.25001C14.4783 4.25001 12.0132 4.99778 9.91649 6.39877C7.81976 7.79976 6.18556 9.79104 5.22054 12.1208C4.25553 14.4506 4.00303 17.0141 4.49499 19.4874C4.98696 21.9607 6.20128 24.2325 7.9844 26.0156C9.76751 27.7987 12.0393 29.0131 14.5126 29.505C16.9859 29.997 19.5495 29.7445 21.8792 28.7795C24.209 27.8145 26.2003 26.1803 27.6012 24.0835C29.0022 21.9868 29.75 19.5217 29.75 17C29.75 13.6185 28.4067 10.3755 26.0156 7.9844C23.6245 5.59331 20.3815 4.25001 17 4.25001Z" fill="#FD787F"/>
</svg>
